solid OpenSCAD_Model
  facet normal -0.994528 -0.104469 -0.000000
    outer loop
      vertex -5.892434 -6.500000 0.000000
      vertex -5.848000 -6.923000 0.000000
      vertex -5.892434 -6.500000 5.000000
    endloop
  endfacet
  facet normal -0.994528 -0.104469 0.000000
    outer loop
      vertex -5.892434 -6.500000 5.000000
      vertex -5.848000 -6.923000 0.000000
      vertex -5.848000 -6.923000 5.000000
    endloop
  endfacet
  facet normal 0.000000 0.000000 -1.000000
    outer loop
      vertex -5.892434 -6.500000 0.000000
      vertex 6.250000 -6.500000 0.000000
      vertex -5.848000 -6.923000 0.000000
    endloop
  endfacet
  facet normal 0.000000 0.000000 -1.000000
    outer loop
      vertex 9.389000 21.874000 0.000000
      vertex 6.250000 -6.500000 0.000000
      vertex 7.825000 23.011000 0.000000
    endloop
  endfacet
  facet normal 0.000000 0.000000 -1.000000
    outer loop
      vertex -5.848000 16.923000 0.000000
      vertex 6.250000 16.500000 0.000000
      vertex -5.892434 16.500000 0.000000
    endloop
  endfacet
  facet normal 0.000000 0.000000 -1.000000
    outer loop
      vertex -5.250000 18.762000 0.000000
      vertex 6.250000 16.500000 0.000000
      vertex -5.848000 16.923000 0.000000
    endloop
  endfacet
  facet normal 0.000000 0.000000 -1.000000
    outer loop
      vertex -0.195090 18.019215 0.000000
      vertex 6.250000 16.500000 0.000000
      vertex -5.250000 18.762000 0.000000
    endloop
  endfacet
  facet normal 0.000000 0.000000 -1.000000
    outer loop
      vertex 0.555570 19.831470 0.000000
      vertex 6.250000 16.500000 0.000000
      vertex 0.707107 19.707107 0.000000
    endloop
  endfacet
  facet normal 0.000000 0.000000 -1.000000
    outer loop
      vertex 0.342000 23.797000 0.000000
      vertex 6.250000 16.500000 0.000000
      vertex -1.425000 23.011000 0.000000
    endloop
  endfacet
  facet normal 0.000000 0.000000 -1.000000
    outer loop
      vertex 2.233000 24.199000 0.000000
      vertex 6.250000 16.500000 0.000000
      vertex 0.342000 23.797000 0.000000
    endloop
  endfacet
  facet normal 0.000000 0.000000 -1.000000
    outer loop
      vertex 4.167000 24.199000 0.000000
      vertex 6.250000 16.500000 0.000000
      vertex 2.233000 24.199000 0.000000
    endloop
  endfacet
  facet normal 0.000000 0.000000 -1.000000
    outer loop
      vertex 6.058000 23.797000 0.000000
      vertex 6.250000 16.500000 0.000000
      vertex 4.167000 24.199000 0.000000
    endloop
  endfacet
  facet normal 0.000000 0.000000 -1.000000
    outer loop
      vertex 7.825000 23.011000 0.000000
      vertex 6.250000 16.500000 0.000000
      vertex 6.058000 23.797000 0.000000
    endloop
  endfacet
  facet normal 0.000000 -0.000000 -1.000000
    outer loop
      vertex 6.250000 -6.500000 0.000000
      vertex 6.250000 16.500000 0.000000
      vertex 7.825000 23.011000 0.000000
    endloop
  endfacet
  facet normal 0.000000 0.000000 -1.000000
    outer loop
      vertex 10.683000 20.437000 0.000000
      vertex 6.250000 -6.500000 0.000000
      vertex 9.389000 21.874000 0.000000
    endloop
  endfacet
  facet normal 0.000000 0.000000 -1.000000
    outer loop
      vertex 11.650000 18.762000 0.000000
      vertex 6.250000 -6.500000 0.000000
      vertex 10.683000 20.437000 0.000000
    endloop
  endfacet
  facet normal 0.000000 0.000000 -1.000000
    outer loop
      vertex 17.305000 6.634000 0.000000
      vertex 6.250000 -6.500000 0.000000
      vertex 11.650000 18.762000 0.000000
    endloop
  endfacet
  facet normal 0.000000 0.000000 -1.000000
    outer loop
      vertex 18.010000 4.774000 0.000000
      vertex 6.250000 -6.500000 0.000000
      vertex 17.305000 6.634000 0.000000
    endloop
  endfacet
  facet normal 0.000000 0.000000 -1.000000
    outer loop
      vertex 18.250000 2.800000 0.000000
      vertex 6.250000 -6.500000 0.000000
      vertex 18.010000 4.774000 0.000000
    endloop
  endfacet
  facet normal 0.000000 -0.000000 -1.000000
    outer loop
      vertex 18.010000 0.826000 0.000000
      vertex 6.250000 -6.500000 0.000000
      vertex 18.250000 2.800000 0.000000
    endloop
  endfacet
  facet normal 0.000000 0.000000 -1.000000
    outer loop
      vertex 3.542000 -46.259000 0.000000
      vertex 6.250000 -6.500000 0.000000
      vertex 18.010000 0.826000 0.000000
    endloop
  endfacet
  facet normal -0.000000 0.000000 -1.000000
    outer loop
      vertex -0.241000 -13.538000 0.000000
      vertex 6.250000 -6.500000 0.000000
      vertex 3.542000 -46.259000 0.000000
    endloop
  endfacet
  facet normal 0.000000 0.000000 -1.000000
    outer loop
      vertex -0.241000 -13.538000 0.000000
      vertex 2.800000 -54.400000 0.000000
      vertex 2.145000 -56.200000 0.000000
    endloop
  endfacet
  facet normal 0.000000 0.000000 -1.000000
    outer loop
      vertex -1.400000 -56.825000 0.000000
      vertex -2.631000 -55.358000 0.000000
      vertex -2.909000 -47.111000 0.000000
    endloop
  endfacet
  facet normal 0.000000 0.000000 -1.000000
    outer loop
      vertex -0.241000 -13.538000 0.000000
      vertex 3.542000 -46.259000 0.000000
      vertex 2.949000 -46.928000 0.000000
    endloop
  endfacet
  facet normal 0.000000 0.000000 -1.000000
    outer loop
      vertex -0.241000 -13.538000 0.000000
      vertex 2.949000 -46.928000 0.000000
      vertex 2.800000 -54.400000 0.000000
    endloop
  endfacet
  facet normal -0.000000 0.000000 -1.000000
    outer loop
      vertex 0.555570 -9.831470 0.000000
      vertex 6.250000 -6.500000 0.000000
      vertex -0.241000 -13.538000 0.000000
    endloop
  endfacet
  facet normal 0.000000 0.000000 -1.000000
    outer loop
      vertex -0.923880 -9.382683 0.000000
      vertex -0.241000 -13.538000 0.000000
      vertex -0.980785 -9.195090 0.000000
    endloop
  endfacet
  facet normal 0.000000 0.000000 -1.000000
    outer loop
      vertex -5.848000 -6.923000 0.000000
      vertex -0.241000 -13.538000 0.000000
      vertex -1.425000 -13.011000 0.000000
    endloop
  endfacet
  facet normal 0.000000 0.000000 -1.000000
    outer loop
      vertex -5.848000 -6.923000 0.000000
      vertex -1.425000 -13.011000 0.000000
      vertex -2.989000 -11.874000 0.000000
    endloop
  endfacet
  facet normal 0.000000 0.000000 -1.000000
    outer loop
      vertex -5.848000 -6.923000 0.000000
      vertex -2.989000 -11.874000 0.000000
      vertex -4.283000 -10.437000 0.000000
    endloop
  endfacet
  facet normal 0.000000 0.000000 -1.000000
    outer loop
      vertex -5.848000 -6.923000 0.000000
      vertex -4.283000 -10.437000 0.000000
      vertex -5.250000 -8.762000 0.000000
    endloop
  endfacet
  facet normal 0.000000 -0.000000 -1.000000
    outer loop
      vertex -0.195090 -8.019215 0.000000
      vertex -5.848000 -6.923000 0.000000
      vertex 0.000000 -8.000000 0.000000
    endloop
  endfacet
  facet normal 0.000000 0.000000 -1.000000
    outer loop
      vertex -5.848000 -6.923000 0.000000
      vertex -1.000000 -9.000000 0.000000
      vertex -0.980785 -9.195090 0.000000
    endloop
  endfacet
  facet normal 0.000000 0.000000 -1.000000
    outer loop
      vertex -5.848000 -6.923000 0.000000
      vertex -0.980785 -9.195090 0.000000
      vertex -0.241000 -13.538000 0.000000
    endloop
  endfacet
  facet normal -0.000000 0.000000 -1.000000
    outer loop
      vertex 0.707107 -8.292893 0.000000
      vertex 6.250000 -6.500000 0.000000
      vertex 0.831470 -8.444430 0.000000
    endloop
  endfacet
  facet normal -0.000000 0.000000 -1.000000
    outer loop
      vertex 0.707107 -9.707107 0.000000
      vertex 6.250000 -6.500000 0.000000
      vertex 0.555570 -9.831470 0.000000
    endloop
  endfacet
  facet normal 0.000000 0.000000 -1.000000
    outer loop
      vertex -0.923880 -9.382683 0.000000
      vertex -0.831470 -9.555570 0.000000
      vertex -0.241000 -13.538000 0.000000
    endloop
  endfacet
  facet normal -0.000000 0.000000 -1.000000
    outer loop
      vertex 0.923880 -8.617317 0.000000
      vertex 6.250000 -6.500000 0.000000
      vertex 0.980785 -8.804910 0.000000
    endloop
  endfacet
  facet normal 0.000000 0.000000 -1.000000
    outer loop
      vertex -0.831470 -9.555570 0.000000
      vertex -0.707107 -9.707107 0.000000
      vertex -0.241000 -13.538000 0.000000
    endloop
  endfacet
  facet normal -0.000000 0.000000 -1.000000
    outer loop
      vertex 0.980785 -8.804910 0.000000
      vertex 6.250000 -6.500000 0.000000
      vertex 1.000000 -9.000000 0.000000
    endloop
  endfacet
  facet normal 0.000000 0.000000 -1.000000
    outer loop
      vertex -0.707107 -9.707107 0.000000
      vertex -0.555570 -9.831470 0.000000
      vertex -0.241000 -13.538000 0.000000
    endloop
  endfacet
  facet normal -0.000000 0.000000 -1.000000
    outer loop
      vertex 1.000000 -9.000000 0.000000
      vertex 6.250000 -6.500000 0.000000
      vertex 0.980785 -9.195090 0.000000
    endloop
  endfacet
  facet normal 0.000000 0.000000 -1.000000
    outer loop
      vertex -0.555570 -9.831470 0.000000
      vertex -0.382683 -9.923880 0.000000
      vertex -0.241000 -13.538000 0.000000
    endloop
  endfacet
  facet normal 0.000000 0.000000 -1.000000
    outer loop
      vertex -0.382683 -9.923880 0.000000
      vertex -0.195090 -9.980785 0.000000
      vertex -0.241000 -13.538000 0.000000
    endloop
  endfacet
  facet normal -0.000000 0.000000 -1.000000
    outer loop
      vertex 0.980785 -9.195090 0.000000
      vertex 6.250000 -6.500000 0.000000
      vertex 0.923880 -9.382683 0.000000
    endloop
  endfacet
  facet normal 0.000000 0.000000 -1.000000
    outer loop
      vertex -0.195090 -9.980785 0.000000
      vertex 0.000000 -10.000000 0.000000
      vertex -0.241000 -13.538000 0.000000
    endloop
  endfacet
  facet normal -0.000000 0.000000 -1.000000
    outer loop
      vertex 0.923880 -9.382683 0.000000
      vertex 6.250000 -6.500000 0.000000
      vertex 0.831470 -9.555570 0.000000
    endloop
  endfacet
  facet normal -0.000000 0.000000 -1.000000
    outer loop
      vertex 0.000000 -10.000000 0.000000
      vertex 0.195090 -9.980785 0.000000
      vertex -0.241000 -13.538000 0.000000
    endloop
  endfacet
  facet normal -0.000000 0.000000 -1.000000
    outer loop
      vertex 0.831470 -9.555570 0.000000
      vertex 6.250000 -6.500000 0.000000
      vertex 0.707107 -9.707107 0.000000
    endloop
  endfacet
  facet normal -0.000000 0.000000 -1.000000
    outer loop
      vertex 0.195090 -9.980785 0.000000
      vertex 0.382683 -9.923880 0.000000
      vertex -0.241000 -13.538000 0.000000
    endloop
  endfacet
  facet normal -0.000000 0.000000 -1.000000
    outer loop
      vertex 0.382683 -9.923880 0.000000
      vertex 0.555570 -9.831470 0.000000
      vertex -0.241000 -13.538000 0.000000
    endloop
  endfacet
  facet normal -0.000000 0.000000 -1.000000
    outer loop
      vertex 0.831470 -8.444430 0.000000
      vertex 6.250000 -6.500000 0.000000
      vertex 0.923880 -8.617317 0.000000
    endloop
  endfacet
  facet normal -0.000000 0.000000 -1.000000
    outer loop
      vertex 0.555570 -8.168530 0.000000
      vertex 6.250000 -6.500000 0.000000
      vertex 0.707107 -8.292893 0.000000
    endloop
  endfacet
  facet normal -0.000000 0.000000 -1.000000
    outer loop
      vertex 0.382683 -8.076120 0.000000
      vertex 6.250000 -6.500000 0.000000
      vertex 0.555570 -8.168530 0.000000
    endloop
  endfacet
  facet normal -0.000000 0.000000 -1.000000
    outer loop
      vertex 0.195090 -8.019215 0.000000
      vertex 6.250000 -6.500000 0.000000
      vertex 0.382683 -8.076120 0.000000
    endloop
  endfacet
  facet normal -0.000000 0.000000 -1.000000
    outer loop
      vertex -5.848000 -6.923000 0.000000
      vertex 6.250000 -6.500000 0.000000
      vertex 0.195090 -8.019215 0.000000
    endloop
  endfacet
  facet normal 0.000000 0.000000 -1.000000
    outer loop
      vertex -5.848000 -6.923000 0.000000
      vertex 0.195090 -8.019215 0.000000
      vertex 0.000000 -8.000000 0.000000
    endloop
  endfacet
  facet normal 0.000000 -0.000000 -1.000000
    outer loop
      vertex -0.382683 -8.076120 0.000000
      vertex -5.848000 -6.923000 0.000000
      vertex -0.195090 -8.019215 0.000000
    endloop
  endfacet
  facet normal 0.000000 -0.000000 -1.000000
    outer loop
      vertex -1.000000 19.000000 0.000000
      vertex -4.283000 20.437000 0.000000
      vertex -0.980785 19.195090 0.000000
    endloop
  endfacet
  facet normal 0.000000 0.000000 -1.000000
    outer loop
      vertex -5.848000 -6.923000 0.000000
      vertex -0.382683 -8.076120 0.000000
      vertex -0.555570 -8.168530 0.000000
    endloop
  endfacet
  facet normal 0.000000 0.000000 -1.000000
    outer loop
      vertex -5.848000 -6.923000 0.000000
      vertex -0.555570 -8.168530 0.000000
      vertex -0.707107 -8.292893 0.000000
    endloop
  endfacet
  facet normal 0.000000 0.000000 -1.000000
    outer loop
      vertex -5.848000 -6.923000 0.000000
      vertex -0.707107 -8.292893 0.000000
      vertex -0.831470 -8.444430 0.000000
    endloop
  endfacet
  facet normal 0.000000 0.000000 -1.000000
    outer loop
      vertex -5.848000 -6.923000 0.000000
      vertex -0.831470 -8.444430 0.000000
      vertex -0.923880 -8.617317 0.000000
    endloop
  endfacet
  facet normal 0.000000 0.000000 -1.000000
    outer loop
      vertex -5.848000 -6.923000 0.000000
      vertex -0.923880 -8.617317 0.000000
      vertex -0.980785 -8.804910 0.000000
    endloop
  endfacet
  facet normal 0.000000 0.000000 -1.000000
    outer loop
      vertex -5.848000 -6.923000 0.000000
      vertex -0.980785 -8.804910 0.000000
      vertex -1.000000 -9.000000 0.000000
    endloop
  endfacet
  facet normal 0.000000 0.000000 -1.000000
    outer loop
      vertex 0.923880 18.617317 0.000000
      vertex 6.250000 16.500000 0.000000
      vertex 0.831470 18.444430 0.000000
    endloop
  endfacet
  facet normal 0.000000 0.000000 -1.000000
    outer loop
      vertex -4.283000 20.437000 0.000000
      vertex -1.000000 19.000000 0.000000
      vertex -5.250000 18.762000 0.000000
    endloop
  endfacet
  facet normal 0.000000 0.000000 -1.000000
    outer loop
      vertex 0.831470 18.444430 0.000000
      vertex 6.250000 16.500000 0.000000
      vertex 0.707107 18.292893 0.000000
    endloop
  endfacet
  facet normal 0.000000 0.000000 -1.000000
    outer loop
      vertex -1.000000 19.000000 0.000000
      vertex -0.980785 18.804910 0.000000
      vertex -5.250000 18.762000 0.000000
    endloop
  endfacet
  facet normal 0.000000 0.000000 -1.000000
    outer loop
      vertex -0.980785 18.804910 0.000000
      vertex -0.923880 18.617317 0.000000
      vertex -5.250000 18.762000 0.000000
    endloop
  endfacet
  facet normal 0.000000 0.000000 -1.000000
    outer loop
      vertex 0.707107 18.292893 0.000000
      vertex 6.250000 16.500000 0.000000
      vertex 0.555570 18.168530 0.000000
    endloop
  endfacet
  facet normal 0.000000 0.000000 -1.000000
    outer loop
      vertex -0.923880 18.617317 0.000000
      vertex -0.831470 18.444430 0.000000
      vertex -5.250000 18.762000 0.000000
    endloop
  endfacet
  facet normal 0.000000 0.000000 -1.000000
    outer loop
      vertex 0.555570 18.168530 0.000000
      vertex 6.250000 16.500000 0.000000
      vertex 0.382683 18.076120 0.000000
    endloop
  endfacet
  facet normal 0.000000 0.000000 -1.000000
    outer loop
      vertex -0.831470 18.444430 0.000000
      vertex -0.707107 18.292893 0.000000
      vertex -5.250000 18.762000 0.000000
    endloop
  endfacet
  facet normal 0.000000 0.000000 -1.000000
    outer loop
      vertex 0.382683 18.076120 0.000000
      vertex 6.250000 16.500000 0.000000
      vertex 0.195090 18.019215 0.000000
    endloop
  endfacet
  facet normal 0.000000 0.000000 -1.000000
    outer loop
      vertex -0.707107 18.292893 0.000000
      vertex -0.555570 18.168530 0.000000
      vertex -5.250000 18.762000 0.000000
    endloop
  endfacet
  facet normal 0.000000 0.000000 -1.000000
    outer loop
      vertex 0.195090 18.019215 0.000000
      vertex 6.250000 16.500000 0.000000
      vertex 0.000000 18.000000 0.000000
    endloop
  endfacet
  facet normal 0.000000 0.000000 -1.000000
    outer loop
      vertex -0.555570 18.168530 0.000000
      vertex -0.382683 18.076120 0.000000
      vertex -5.250000 18.762000 0.000000
    endloop
  endfacet
  facet normal 0.000000 0.000000 -1.000000
    outer loop
      vertex -0.382683 18.076120 0.000000
      vertex -0.195090 18.019215 0.000000
      vertex -5.250000 18.762000 0.000000
    endloop
  endfacet
  facet normal 0.000000 0.000000 -1.000000
    outer loop
      vertex 0.000000 18.000000 0.000000
      vertex 6.250000 16.500000 0.000000
      vertex -0.195090 18.019215 0.000000
    endloop
  endfacet
  facet normal 0.000000 0.000000 -1.000000
    outer loop
      vertex 0.980785 18.804910 0.000000
      vertex 6.250000 16.500000 0.000000
      vertex 0.923880 18.617317 0.000000
    endloop
  endfacet
  facet normal 0.000000 0.000000 -1.000000
    outer loop
      vertex 1.000000 19.000000 0.000000
      vertex 6.250000 16.500000 0.000000
      vertex 0.980785 18.804910 0.000000
    endloop
  endfacet
  facet normal 0.000000 0.000000 -1.000000
    outer loop
      vertex 0.980785 19.195090 0.000000
      vertex 6.250000 16.500000 0.000000
      vertex 1.000000 19.000000 0.000000
    endloop
  endfacet
  facet normal 0.000000 0.000000 -1.000000
    outer loop
      vertex 0.923880 19.382683 0.000000
      vertex 6.250000 16.500000 0.000000
      vertex 0.980785 19.195090 0.000000
    endloop
  endfacet
  facet normal 0.000000 0.000000 -1.000000
    outer loop
      vertex 0.831470 19.555570 0.000000
      vertex 6.250000 16.500000 0.000000
      vertex 0.923880 19.382683 0.000000
    endloop
  endfacet
  facet normal 0.000000 0.000000 -1.000000
    outer loop
      vertex 0.707107 19.707107 0.000000
      vertex 6.250000 16.500000 0.000000
      vertex 0.831470 19.555570 0.000000
    endloop
  endfacet
  facet normal 0.000000 0.000000 -1.000000
    outer loop
      vertex -1.425000 23.011000 0.000000
      vertex 6.250000 16.500000 0.000000
      vertex 0.555570 19.831470 0.000000
    endloop
  endfacet
  facet normal 0.000000 0.000000 -1.000000
    outer loop
      vertex -1.425000 23.011000 0.000000
      vertex 0.555570 19.831470 0.000000
      vertex -2.989000 21.874000 0.000000
    endloop
  endfacet
  facet normal -0.000000 -0.000000 -1.000000
    outer loop
      vertex 0.195090 19.980785 0.000000
      vertex -2.989000 21.874000 0.000000
      vertex 0.382683 19.923880 0.000000
    endloop
  endfacet
  facet normal 0.000000 0.000000 -1.000000
    outer loop
      vertex 0.555570 19.831470 0.000000
      vertex 0.382683 19.923880 0.000000
      vertex -2.989000 21.874000 0.000000
    endloop
  endfacet
  facet normal -0.000000 -0.000000 -1.000000
    outer loop
      vertex 0.000000 20.000000 0.000000
      vertex -2.989000 21.874000 0.000000
      vertex 0.195090 19.980785 0.000000
    endloop
  endfacet
  facet normal 0.000000 -0.000000 -1.000000
    outer loop
      vertex -0.195090 19.980785 0.000000
      vertex -2.989000 21.874000 0.000000
      vertex 0.000000 20.000000 0.000000
    endloop
  endfacet
  facet normal 0.000000 -0.000000 -1.000000
    outer loop
      vertex -0.382683 19.923880 0.000000
      vertex -2.989000 21.874000 0.000000
      vertex -0.195090 19.980785 0.000000
    endloop
  endfacet
  facet normal 0.000000 -0.000000 -1.000000
    outer loop
      vertex -0.555570 19.831470 0.000000
      vertex -2.989000 21.874000 0.000000
      vertex -0.382683 19.923880 0.000000
    endloop
  endfacet
  facet normal 0.000000 -0.000000 -1.000000
    outer loop
      vertex -0.980785 19.195090 0.000000
      vertex -4.283000 20.437000 0.000000
      vertex -0.923880 19.382683 0.000000
    endloop
  endfacet
  facet normal 0.000000 0.000000 -1.000000
    outer loop
      vertex -2.989000 21.874000 0.000000
      vertex -0.555570 19.831470 0.000000
      vertex -4.283000 20.437000 0.000000
    endloop
  endfacet
  facet normal 0.000000 0.000000 -1.000000
    outer loop
      vertex -0.555570 19.831470 0.000000
      vertex -0.707107 19.707107 0.000000
      vertex -4.283000 20.437000 0.000000
    endloop
  endfacet
  facet normal 0.000000 0.000000 -1.000000
    outer loop
      vertex -0.707107 19.707107 0.000000
      vertex -0.831470 19.555570 0.000000
      vertex -4.283000 20.437000 0.000000
    endloop
  endfacet
  facet normal 0.000000 0.000000 -1.000000
    outer loop
      vertex -0.831470 19.555570 0.000000
      vertex -0.923880 19.382683 0.000000
      vertex -4.283000 20.437000 0.000000
    endloop
  endfacet
  facet normal -0.000000 -0.000000 -1.000000
    outer loop
      vertex -3.884000 -45.357000 0.000000
      vertex -3.884000 -43.443000 0.000000
      vertex -2.994000 -47.052000 0.000000
    endloop
  endfacet
  facet normal 0.000000 0.000000 -1.000000
    outer loop
      vertex -0.241000 -13.538000 0.000000
      vertex 2.145000 -56.200000 0.000000
      vertex 0.486000 -57.157000 0.000000
    endloop
  endfacet
  facet normal 0.000000 0.000000 -1.000000
    outer loop
      vertex -0.241000 -13.538000 0.000000
      vertex 0.486000 -57.157000 0.000000
      vertex -1.400000 -56.825000 0.000000
    endloop
  endfacet
  facet normal 0.000000 0.000000 -1.000000
    outer loop
      vertex -0.241000 -13.538000 0.000000
      vertex -1.400000 -56.825000 0.000000
      vertex -2.909000 -47.111000 0.000000
    endloop
  endfacet
  facet normal 0.000000 0.000000 -1.000000
    outer loop
      vertex -0.241000 -13.538000 0.000000
      vertex -2.909000 -47.111000 0.000000
      vertex -2.994000 -47.052000 0.000000
    endloop
  endfacet
  facet normal 0.000000 0.000000 -1.000000
    outer loop
      vertex -0.241000 -13.538000 0.000000
      vertex -2.994000 -47.052000 0.000000
      vertex -3.884000 -43.443000 0.000000
    endloop
  endfacet
  facet normal 0.000000 1.000000 0.000000
    outer loop
      vertex 6.250000 -6.500000 5.000000
      vertex 6.250000 -6.500000 0.000000
      vertex -5.892434 -6.500000 5.000000
    endloop
  endfacet
  facet normal 0.000000 1.000000 -0.000000
    outer loop
      vertex -5.892434 -6.500000 5.000000
      vertex 6.250000 -6.500000 0.000000
      vertex -5.892434 -6.500000 0.000000
    endloop
  endfacet
  facet normal 0.000000 0.000000 1.000000
    outer loop
      vertex -2.909000 -47.111000 5.000000
      vertex -2.631000 -55.358000 5.000000
      vertex 6.250000 -6.500000 5.000000
    endloop
  endfacet
  facet normal 0.000000 0.000000 1.000000
    outer loop
      vertex 6.250000 -6.500000 5.000000
      vertex -5.892434 -6.500000 5.000000
      vertex -5.848000 -6.923000 5.000000
    endloop
  endfacet
  facet normal -0.000000 0.000000 1.000000
    outer loop
      vertex -0.195090 -8.019215 5.000000
      vertex 6.250000 -6.500000 5.000000
      vertex -5.250000 -8.762000 5.000000
    endloop
  endfacet
  facet normal 0.000000 0.000000 1.000000
    outer loop
      vertex -5.250000 -8.762000 5.000000
      vertex 6.250000 -6.500000 5.000000
      vertex -5.848000 -6.923000 5.000000
    endloop
  endfacet
  facet normal 0.000000 0.000000 1.000000
    outer loop
      vertex -0.195090 -8.019215 5.000000
      vertex 0.000000 -8.000000 5.000000
      vertex 6.250000 -6.500000 5.000000
    endloop
  endfacet
  facet normal 0.000000 0.000000 1.000000
    outer loop
      vertex 0.382683 -9.923880 5.000000
      vertex 0.195090 -9.980785 5.000000
      vertex -2.989000 -11.874000 5.000000
    endloop
  endfacet
  facet normal 0.000000 0.000000 1.000000
    outer loop
      vertex -0.241000 -13.538000 5.000000
      vertex 6.250000 -6.500000 5.000000
      vertex -1.425000 -13.011000 5.000000
    endloop
  endfacet
  facet normal 0.000000 0.000000 1.000000
    outer loop
      vertex -3.884000 -43.443000 5.000000
      vertex 6.250000 -6.500000 5.000000
      vertex -0.241000 -13.538000 5.000000
    endloop
  endfacet
  facet normal 0.000000 0.000000 1.000000
    outer loop
      vertex -3.884000 -45.357000 5.000000
      vertex 6.250000 -6.500000 5.000000
      vertex -3.884000 -43.443000 5.000000
    endloop
  endfacet
  facet normal 0.000000 0.000000 1.000000
    outer loop
      vertex -3.884000 -45.357000 5.000000
      vertex -2.994000 -47.052000 5.000000
      vertex 6.250000 -6.500000 5.000000
    endloop
  endfacet
  facet normal 0.000000 0.000000 1.000000
    outer loop
      vertex -2.994000 -47.052000 5.000000
      vertex -2.909000 -47.111000 5.000000
      vertex 6.250000 -6.500000 5.000000
    endloop
  endfacet
  facet normal 0.000000 0.000000 1.000000
    outer loop
      vertex 3.542000 -46.259000 5.000000
      vertex 18.010000 0.826000 5.000000
      vertex 6.250000 -6.500000 5.000000
    endloop
  endfacet
  facet normal 0.000000 0.000000 1.000000
    outer loop
      vertex -2.631000 -55.358000 5.000000
      vertex -1.400000 -56.825000 5.000000
      vertex 6.250000 -6.500000 5.000000
    endloop
  endfacet
  facet normal 0.000000 0.000000 1.000000
    outer loop
      vertex -1.400000 -56.825000 5.000000
      vertex 0.486000 -57.157000 5.000000
      vertex 6.250000 -6.500000 5.000000
    endloop
  endfacet
  facet normal 0.000000 0.000000 1.000000
    outer loop
      vertex 0.486000 -57.157000 5.000000
      vertex 2.145000 -56.200000 5.000000
      vertex 6.250000 -6.500000 5.000000
    endloop
  endfacet
  facet normal 0.000000 0.000000 1.000000
    outer loop
      vertex -5.892434 16.500000 5.000000
      vertex -5.250000 18.762000 5.000000
      vertex -5.848000 16.923000 5.000000
    endloop
  endfacet
  facet normal 0.000000 0.000000 1.000000
    outer loop
      vertex 2.145000 -56.200000 5.000000
      vertex 2.949000 -46.928000 5.000000
      vertex 6.250000 -6.500000 5.000000
    endloop
  endfacet
  facet normal 0.000000 0.000000 1.000000
    outer loop
      vertex 2.145000 -56.200000 5.000000
      vertex 2.800000 -54.400000 5.000000
      vertex 2.949000 -46.928000 5.000000
    endloop
  endfacet
  facet normal 0.000000 0.000000 1.000000
    outer loop
      vertex 2.949000 -46.928000 5.000000
      vertex 3.542000 -46.259000 5.000000
      vertex 6.250000 -6.500000 5.000000
    endloop
  endfacet
  facet normal 0.000000 0.000000 1.000000
    outer loop
      vertex -5.892434 16.500000 5.000000
      vertex -4.283000 20.437000 5.000000
      vertex -5.250000 18.762000 5.000000
    endloop
  endfacet
  facet normal 0.000000 0.000000 1.000000
    outer loop
      vertex -5.892434 16.500000 5.000000
      vertex -2.989000 21.874000 5.000000
      vertex -4.283000 20.437000 5.000000
    endloop
  endfacet
  facet normal 0.000000 0.000000 1.000000
    outer loop
      vertex -5.892434 16.500000 5.000000
      vertex -1.425000 23.011000 5.000000
      vertex -2.989000 21.874000 5.000000
    endloop
  endfacet
  facet normal 0.000000 0.000000 1.000000
    outer loop
      vertex -5.892434 16.500000 5.000000
      vertex -0.980785 18.804910 5.000000
      vertex -1.425000 23.011000 5.000000
    endloop
  endfacet
  facet normal 0.000000 0.000000 1.000000
    outer loop
      vertex -5.892434 16.500000 5.000000
      vertex -0.923880 18.617317 5.000000
      vertex -0.980785 18.804910 5.000000
    endloop
  endfacet
  facet normal 0.000000 0.000000 1.000000
    outer loop
      vertex 0.195090 -9.980785 5.000000
      vertex 0.000000 -10.000000 5.000000
      vertex -2.989000 -11.874000 5.000000
    endloop
  endfacet
  facet normal -0.000000 0.000000 1.000000
    outer loop
      vertex -0.923880 -9.382683 5.000000
      vertex -0.980785 -9.195090 5.000000
      vertex -4.283000 -10.437000 5.000000
    endloop
  endfacet
  facet normal -0.000000 0.000000 1.000000
    outer loop
      vertex 9.389000 21.874000 5.000000
      vertex 7.825000 23.011000 5.000000
      vertex 6.250000 16.500000 5.000000
    endloop
  endfacet
  facet normal 0.000000 0.000000 1.000000
    outer loop
      vertex -4.283000 -10.437000 5.000000
      vertex -0.980785 -9.195090 5.000000
      vertex -5.250000 -8.762000 5.000000
    endloop
  endfacet
  facet normal 0.000000 0.000000 1.000000
    outer loop
      vertex -0.980785 -9.195090 5.000000
      vertex -1.000000 -9.000000 5.000000
      vertex -5.250000 -8.762000 5.000000
    endloop
  endfacet
  facet normal 0.000000 0.000000 1.000000
    outer loop
      vertex -1.000000 -9.000000 5.000000
      vertex -0.980785 -8.804910 5.000000
      vertex -5.250000 -8.762000 5.000000
    endloop
  endfacet
  facet normal 0.000000 0.000000 1.000000
    outer loop
      vertex -0.980785 -8.804910 5.000000
      vertex -0.923880 -8.617317 5.000000
      vertex -5.250000 -8.762000 5.000000
    endloop
  endfacet
  facet normal 0.000000 0.000000 1.000000
    outer loop
      vertex 0.707107 -8.292893 5.000000
      vertex 0.831470 -8.444430 5.000000
      vertex 6.250000 -6.500000 5.000000
    endloop
  endfacet
  facet normal -0.000000 0.000000 1.000000
    outer loop
      vertex -0.923880 -8.617317 5.000000
      vertex -0.831470 -8.444430 5.000000
      vertex -5.250000 -8.762000 5.000000
    endloop
  endfacet
  facet normal -0.000000 0.000000 1.000000
    outer loop
      vertex -0.831470 -8.444430 5.000000
      vertex -0.707107 -8.292893 5.000000
      vertex -5.250000 -8.762000 5.000000
    endloop
  endfacet
  facet normal -0.000000 0.000000 1.000000
    outer loop
      vertex -0.707107 -8.292893 5.000000
      vertex -0.555570 -8.168530 5.000000
      vertex -5.250000 -8.762000 5.000000
    endloop
  endfacet
  facet normal -0.000000 0.000000 1.000000
    outer loop
      vertex -0.555570 -8.168530 5.000000
      vertex -0.382683 -8.076120 5.000000
      vertex -5.250000 -8.762000 5.000000
    endloop
  endfacet
  facet normal -0.000000 0.000000 1.000000
    outer loop
      vertex -0.382683 -8.076120 5.000000
      vertex -0.195090 -8.019215 5.000000
      vertex -5.250000 -8.762000 5.000000
    endloop
  endfacet
  facet normal 0.000000 0.000000 1.000000
    outer loop
      vertex 0.000000 -8.000000 5.000000
      vertex 0.195090 -8.019215 5.000000
      vertex 6.250000 -6.500000 5.000000
    endloop
  endfacet
  facet normal 0.000000 0.000000 1.000000
    outer loop
      vertex 0.195090 -8.019215 5.000000
      vertex 0.382683 -8.076120 5.000000
      vertex 6.250000 -6.500000 5.000000
    endloop
  endfacet
  facet normal 0.000000 0.000000 1.000000
    outer loop
      vertex 0.382683 -8.076120 5.000000
      vertex 0.555570 -8.168530 5.000000
      vertex 6.250000 -6.500000 5.000000
    endloop
  endfacet
  facet normal 0.000000 -0.000000 1.000000
    outer loop
      vertex 0.707107 -9.707107 5.000000
      vertex 0.555570 -9.831470 5.000000
      vertex 6.250000 -6.500000 5.000000
    endloop
  endfacet
  facet normal 0.000000 0.000000 1.000000
    outer loop
      vertex 0.831470 -8.444430 5.000000
      vertex 0.923880 -8.617317 5.000000
      vertex 6.250000 -6.500000 5.000000
    endloop
  endfacet
  facet normal 0.000000 0.000000 1.000000
    outer loop
      vertex 0.555570 -8.168530 5.000000
      vertex 0.707107 -8.292893 5.000000
      vertex 6.250000 -6.500000 5.000000
    endloop
  endfacet
  facet normal 0.000000 0.000000 1.000000
    outer loop
      vertex 0.980785 -8.804910 5.000000
      vertex 6.250000 -6.500000 5.000000
      vertex 0.923880 -8.617317 5.000000
    endloop
  endfacet
  facet normal 0.000000 0.000000 1.000000
    outer loop
      vertex -0.923880 19.382683 5.000000
      vertex -0.831470 19.555570 5.000000
      vertex 0.342000 23.797000 5.000000
    endloop
  endfacet
  facet normal 0.000000 0.000000 1.000000
    outer loop
      vertex 1.000000 -9.000000 5.000000
      vertex 6.250000 -6.500000 5.000000
      vertex 0.980785 -8.804910 5.000000
    endloop
  endfacet
  facet normal 0.000000 0.000000 1.000000
    outer loop
      vertex 0.980785 -9.195090 5.000000
      vertex 6.250000 -6.500000 5.000000
      vertex 1.000000 -9.000000 5.000000
    endloop
  endfacet
  facet normal 0.000000 0.000000 1.000000
    outer loop
      vertex 0.923880 -9.382683 5.000000
      vertex 6.250000 -6.500000 5.000000
      vertex 0.980785 -9.195090 5.000000
    endloop
  endfacet
  facet normal -0.000000 0.000000 1.000000
    outer loop
      vertex -0.195090 -9.980785 5.000000
      vertex -0.382683 -9.923880 5.000000
      vertex -2.989000 -11.874000 5.000000
    endloop
  endfacet
  facet normal 0.000000 0.000000 1.000000
    outer loop
      vertex 0.831470 -9.555570 5.000000
      vertex 6.250000 -6.500000 5.000000
      vertex 0.923880 -9.382683 5.000000
    endloop
  endfacet
  facet normal 0.000000 0.000000 1.000000
    outer loop
      vertex 0.707107 -9.707107 5.000000
      vertex 6.250000 -6.500000 5.000000
      vertex 0.831470 -9.555570 5.000000
    endloop
  endfacet
  facet normal -0.000000 0.000000 1.000000
    outer loop
      vertex 0.000000 -10.000000 5.000000
      vertex -0.195090 -9.980785 5.000000
      vertex -2.989000 -11.874000 5.000000
    endloop
  endfacet
  facet normal 0.000000 0.000000 1.000000
    outer loop
      vertex -1.425000 -13.011000 5.000000
      vertex 0.555570 -9.831470 5.000000
      vertex -2.989000 -11.874000 5.000000
    endloop
  endfacet
  facet normal 0.000000 0.000000 1.000000
    outer loop
      vertex -1.425000 -13.011000 5.000000
      vertex 6.250000 -6.500000 5.000000
      vertex 0.555570 -9.831470 5.000000
    endloop
  endfacet
  facet normal 0.000000 0.000000 1.000000
    outer loop
      vertex 0.555570 -9.831470 5.000000
      vertex 0.382683 -9.923880 5.000000
      vertex -2.989000 -11.874000 5.000000
    endloop
  endfacet
  facet normal -0.000000 0.000000 1.000000
    outer loop
      vertex -0.382683 -9.923880 5.000000
      vertex -0.555570 -9.831470 5.000000
      vertex -2.989000 -11.874000 5.000000
    endloop
  endfacet
  facet normal 0.000000 0.000000 1.000000
    outer loop
      vertex -2.989000 -11.874000 5.000000
      vertex -0.555570 -9.831470 5.000000
      vertex -4.283000 -10.437000 5.000000
    endloop
  endfacet
  facet normal -0.000000 0.000000 1.000000
    outer loop
      vertex -0.555570 -9.831470 5.000000
      vertex -0.707107 -9.707107 5.000000
      vertex -4.283000 -10.437000 5.000000
    endloop
  endfacet
  facet normal -0.000000 0.000000 1.000000
    outer loop
      vertex -0.707107 -9.707107 5.000000
      vertex -0.831470 -9.555570 5.000000
      vertex -4.283000 -10.437000 5.000000
    endloop
  endfacet
  facet normal -0.000000 0.000000 1.000000
    outer loop
      vertex -0.831470 -9.555570 5.000000
      vertex -0.923880 -9.382683 5.000000
      vertex -4.283000 -10.437000 5.000000
    endloop
  endfacet
  facet normal -0.000000 -0.000000 1.000000
    outer loop
      vertex -1.000000 19.000000 5.000000
      vertex -1.425000 23.011000 5.000000
      vertex -0.980785 18.804910 5.000000
    endloop
  endfacet
  facet normal -0.000000 0.000000 1.000000
    outer loop
      vertex -0.980785 19.195090 5.000000
      vertex -1.425000 23.011000 5.000000
      vertex -1.000000 19.000000 5.000000
    endloop
  endfacet
  facet normal 0.000000 0.000000 1.000000
    outer loop
      vertex 0.342000 23.797000 5.000000
      vertex -1.425000 23.011000 5.000000
      vertex -0.980785 19.195090 5.000000
    endloop
  endfacet
  facet normal 0.000000 0.000000 1.000000
    outer loop
      vertex -0.831470 19.555570 5.000000
      vertex -0.707107 19.707107 5.000000
      vertex 0.342000 23.797000 5.000000
    endloop
  endfacet
  facet normal 0.000000 0.000000 1.000000
    outer loop
      vertex 0.342000 23.797000 5.000000
      vertex -0.980785 19.195090 5.000000
      vertex -0.923880 19.382683 5.000000
    endloop
  endfacet
  facet normal 0.000000 0.000000 1.000000
    outer loop
      vertex -0.555570 19.831470 5.000000
      vertex -0.382683 19.923880 5.000000
      vertex 0.342000 23.797000 5.000000
    endloop
  endfacet
  facet normal 0.000000 0.000000 1.000000
    outer loop
      vertex 0.342000 23.797000 5.000000
      vertex -0.707107 19.707107 5.000000
      vertex -0.555570 19.831470 5.000000
    endloop
  endfacet
  facet normal 0.000000 0.000000 1.000000
    outer loop
      vertex 2.233000 24.199000 5.000000
      vertex 0.342000 23.797000 5.000000
      vertex -0.382683 19.923880 5.000000
    endloop
  endfacet
  facet normal 0.000000 0.000000 1.000000
    outer loop
      vertex 2.233000 24.199000 5.000000
      vertex -0.382683 19.923880 5.000000
      vertex -0.195090 19.980785 5.000000
    endloop
  endfacet
  facet normal 0.000000 0.000000 1.000000
    outer loop
      vertex 2.233000 24.199000 5.000000
      vertex -0.195090 19.980785 5.000000
      vertex 0.000000 20.000000 5.000000
    endloop
  endfacet
  facet normal 0.000000 0.000000 1.000000
    outer loop
      vertex 2.233000 24.199000 5.000000
      vertex 0.000000 20.000000 5.000000
      vertex 0.195090 19.980785 5.000000
    endloop
  endfacet
  facet normal 0.000000 0.000000 1.000000
    outer loop
      vertex 2.233000 24.199000 5.000000
      vertex 0.195090 19.980785 5.000000
      vertex 0.382683 19.923880 5.000000
    endloop
  endfacet
  facet normal 0.000000 0.000000 1.000000
    outer loop
      vertex 2.233000 24.199000 5.000000
      vertex 0.382683 19.923880 5.000000
      vertex 0.555570 19.831470 5.000000
    endloop
  endfacet
  facet normal 0.000000 0.000000 1.000000
    outer loop
      vertex 2.233000 24.199000 5.000000
      vertex 0.555570 19.831470 5.000000
      vertex 0.707107 19.707107 5.000000
    endloop
  endfacet
  facet normal 0.000000 0.000000 1.000000
    outer loop
      vertex 2.233000 24.199000 5.000000
      vertex 0.707107 19.707107 5.000000
      vertex 0.831470 19.555570 5.000000
    endloop
  endfacet
  facet normal 0.000000 0.000000 1.000000
    outer loop
      vertex 2.233000 24.199000 5.000000
      vertex 0.831470 19.555570 5.000000
      vertex 0.923880 19.382683 5.000000
    endloop
  endfacet
  facet normal 0.000000 0.000000 1.000000
    outer loop
      vertex 4.167000 24.199000 5.000000
      vertex 2.233000 24.199000 5.000000
      vertex 0.980785 19.195090 5.000000
    endloop
  endfacet
  facet normal 0.000000 0.000000 1.000000
    outer loop
      vertex 4.167000 24.199000 5.000000
      vertex 0.980785 19.195090 5.000000
      vertex 1.000000 19.000000 5.000000
    endloop
  endfacet
  facet normal 0.000000 0.000000 1.000000
    outer loop
      vertex 4.167000 24.199000 5.000000
      vertex 1.000000 19.000000 5.000000
      vertex 0.980785 18.804910 5.000000
    endloop
  endfacet
  facet normal 0.000000 0.000000 1.000000
    outer loop
      vertex 0.923880 19.382683 5.000000
      vertex 0.980785 19.195090 5.000000
      vertex 2.233000 24.199000 5.000000
    endloop
  endfacet
  facet normal 0.000000 0.000000 1.000000
    outer loop
      vertex 6.250000 16.500000 5.000000
      vertex 10.683000 20.437000 5.000000
      vertex 9.389000 21.874000 5.000000
    endloop
  endfacet
  facet normal 0.000000 0.000000 1.000000
    outer loop
      vertex 6.250000 16.500000 5.000000
      vertex 11.650000 18.762000 5.000000
      vertex 10.683000 20.437000 5.000000
    endloop
  endfacet
  facet normal 0.000000 0.000000 1.000000
    outer loop
      vertex 6.250000 16.500000 5.000000
      vertex 17.305000 6.634000 5.000000
      vertex 11.650000 18.762000 5.000000
    endloop
  endfacet
  facet normal 0.000000 0.000000 1.000000
    outer loop
      vertex 6.250000 16.500000 5.000000
      vertex 18.010000 4.774000 5.000000
      vertex 17.305000 6.634000 5.000000
    endloop
  endfacet
  facet normal 0.000000 0.000000 1.000000
    outer loop
      vertex 6.250000 16.500000 5.000000
      vertex 18.250000 2.800000 5.000000
      vertex 18.010000 4.774000 5.000000
    endloop
  endfacet
  facet normal 0.000000 0.000000 1.000000
    outer loop
      vertex 6.250000 16.500000 5.000000
      vertex 18.010000 0.826000 5.000000
      vertex 18.250000 2.800000 5.000000
    endloop
  endfacet
  facet normal 0.000000 -0.000000 1.000000
    outer loop
      vertex 6.250000 16.500000 5.000000
      vertex 6.250000 -6.500000 5.000000
      vertex 18.010000 0.826000 5.000000
    endloop
  endfacet
  facet normal 0.000000 0.000000 1.000000
    outer loop
      vertex -5.892434 16.500000 5.000000
      vertex -0.831470 18.444430 5.000000
      vertex -0.923880 18.617317 5.000000
    endloop
  endfacet
  facet normal 0.000000 0.000000 1.000000
    outer loop
      vertex -5.892434 16.500000 5.000000
      vertex -0.707107 18.292893 5.000000
      vertex -0.831470 18.444430 5.000000
    endloop
  endfacet
  facet normal 0.000000 0.000000 1.000000
    outer loop
      vertex -5.892434 16.500000 5.000000
      vertex -0.555570 18.168530 5.000000
      vertex -0.707107 18.292893 5.000000
    endloop
  endfacet
  facet normal 0.000000 0.000000 1.000000
    outer loop
      vertex -5.892434 16.500000 5.000000
      vertex -0.382683 18.076120 5.000000
      vertex -0.555570 18.168530 5.000000
    endloop
  endfacet
  facet normal 0.000000 0.000000 1.000000
    outer loop
      vertex -5.892434 16.500000 5.000000
      vertex -0.195090 18.019215 5.000000
      vertex -0.382683 18.076120 5.000000
    endloop
  endfacet
  facet normal 0.000000 0.000000 1.000000
    outer loop
      vertex -5.892434 16.500000 5.000000
      vertex 0.000000 18.000000 5.000000
      vertex -0.195090 18.019215 5.000000
    endloop
  endfacet
  facet normal 0.000000 0.000000 1.000000
    outer loop
      vertex -5.892434 16.500000 5.000000
      vertex 0.195090 18.019215 5.000000
      vertex 0.000000 18.000000 5.000000
    endloop
  endfacet
  facet normal 0.000000 0.000000 1.000000
    outer loop
      vertex 0.923880 18.617317 5.000000
      vertex 4.167000 24.199000 5.000000
      vertex 0.980785 18.804910 5.000000
    endloop
  endfacet
  facet normal 0.000000 0.000000 1.000000
    outer loop
      vertex 0.831470 18.444430 5.000000
      vertex 4.167000 24.199000 5.000000
      vertex 0.923880 18.617317 5.000000
    endloop
  endfacet
  facet normal 0.000000 0.000000 1.000000
    outer loop
      vertex 0.831470 18.444430 5.000000
      vertex 6.058000 23.797000 5.000000
      vertex 4.167000 24.199000 5.000000
    endloop
  endfacet
  facet normal 0.000000 0.000000 1.000000
    outer loop
      vertex 0.707107 18.292893 5.000000
      vertex 6.058000 23.797000 5.000000
      vertex 0.831470 18.444430 5.000000
    endloop
  endfacet
  facet normal 0.000000 0.000000 1.000000
    outer loop
      vertex 0.707107 18.292893 5.000000
      vertex 7.825000 23.011000 5.000000
      vertex 6.058000 23.797000 5.000000
    endloop
  endfacet
  facet normal 0.000000 0.000000 1.000000
    outer loop
      vertex 0.555570 18.168530 5.000000
      vertex 7.825000 23.011000 5.000000
      vertex 0.707107 18.292893 5.000000
    endloop
  endfacet
  facet normal 0.000000 0.000000 1.000000
    outer loop
      vertex 0.555570 18.168530 5.000000
      vertex 6.250000 16.500000 5.000000
      vertex 7.825000 23.011000 5.000000
    endloop
  endfacet
  facet normal 0.000000 0.000000 1.000000
    outer loop
      vertex 0.382683 18.076120 5.000000
      vertex 6.250000 16.500000 5.000000
      vertex 0.555570 18.168530 5.000000
    endloop
  endfacet
  facet normal 0.000000 0.000000 1.000000
    outer loop
      vertex 0.195090 18.019215 5.000000
      vertex 6.250000 16.500000 5.000000
      vertex 0.382683 18.076120 5.000000
    endloop
  endfacet
  facet normal 0.000000 0.000000 1.000000
    outer loop
      vertex -5.892434 16.500000 5.000000
      vertex 6.250000 16.500000 5.000000
      vertex 0.195090 18.019215 5.000000
    endloop
  endfacet
  facet normal -0.950985 -0.309238 -0.000000
    outer loop
      vertex -5.848000 -6.923000 0.000000
      vertex -5.250000 -8.762000 0.000000
      vertex -5.848000 -6.923000 5.000000
    endloop
  endfacet
  facet normal -0.950985 -0.309238 0.000000
    outer loop
      vertex -5.848000 -6.923000 5.000000
      vertex -5.250000 -8.762000 0.000000
      vertex -5.250000 -8.762000 5.000000
    endloop
  endfacet
  facet normal -0.866039 -0.499976 -0.000000
    outer loop
      vertex -5.250000 -8.762000 0.000000
      vertex -4.283000 -10.437000 0.000000
      vertex -5.250000 -8.762000 5.000000
    endloop
  endfacet
  facet normal -0.866039 -0.499976 0.000000
    outer loop
      vertex -5.250000 -8.762000 5.000000
      vertex -4.283000 -10.437000 0.000000
      vertex -4.283000 -10.437000 5.000000
    endloop
  endfacet
  facet normal -0.743114 -0.669165 -0.000000
    outer loop
      vertex -4.283000 -10.437000 0.000000
      vertex -2.989000 -11.874000 0.000000
      vertex -4.283000 -10.437000 5.000000
    endloop
  endfacet
  facet normal -0.743114 -0.669165 0.000000
    outer loop
      vertex -4.283000 -10.437000 5.000000
      vertex -2.989000 -11.874000 0.000000
      vertex -2.989000 -11.874000 5.000000
    endloop
  endfacet
  facet normal -0.588018 -0.808848 0.000000
    outer loop
      vertex -2.989000 -11.874000 5.000000
      vertex -2.989000 -11.874000 0.000000
      vertex -1.425000 -13.011000 0.000000
    endloop
  endfacet
  facet normal -0.588018 -0.808848 0.000000
    outer loop
      vertex -1.425000 -13.011000 5.000000
      vertex -2.989000 -11.874000 5.000000
      vertex -1.425000 -13.011000 0.000000
    endloop
  endfacet
  facet normal -0.406640 -0.913589 0.000000
    outer loop
      vertex -1.425000 -13.011000 5.000000
      vertex -1.425000 -13.011000 0.000000
      vertex -0.241000 -13.538000 0.000000
    endloop
  endfacet
  facet normal -0.406640 -0.913589 0.000000
    outer loop
      vertex -0.241000 -13.538000 5.000000
      vertex -1.425000 -13.011000 5.000000
      vertex -0.241000 -13.538000 0.000000
    endloop
  endfacet
  facet normal -0.992662 0.120925 0.000000
    outer loop
      vertex -3.884000 -43.443000 0.000000
      vertex -3.884000 -43.443000 5.000000
      vertex -0.241000 -13.538000 0.000000
    endloop
  endfacet
  facet normal -0.992662 0.120925 0.000000
    outer loop
      vertex -0.241000 -13.538000 0.000000
      vertex -3.884000 -43.443000 5.000000
      vertex -0.241000 -13.538000 5.000000
    endloop
  endfacet
  facet normal -1.000000 -0.000000 -0.000000
    outer loop
      vertex -3.884000 -45.357000 0.000000
      vertex -3.884000 -45.357000 5.000000
      vertex -3.884000 -43.443000 0.000000
    endloop
  endfacet
  facet normal -1.000000 0.000000 0.000000
    outer loop
      vertex -3.884000 -43.443000 0.000000
      vertex -3.884000 -45.357000 5.000000
      vertex -3.884000 -43.443000 5.000000
    endloop
  endfacet
  facet normal -0.885371 -0.464885 -0.000000
    outer loop
      vertex -3.884000 -45.357000 0.000000
      vertex -2.994000 -47.052000 0.000000
      vertex -3.884000 -45.357000 5.000000
    endloop
  endfacet
  facet normal -0.885371 -0.464885 0.000000
    outer loop
      vertex -3.884000 -45.357000 5.000000
      vertex -2.994000 -47.052000 0.000000
      vertex -2.994000 -47.052000 5.000000
    endloop
  endfacet
  facet normal -0.570215 -0.821496 0.000000
    outer loop
      vertex -2.994000 -47.052000 5.000000
      vertex -2.994000 -47.052000 0.000000
      vertex -2.909000 -47.111000 0.000000
    endloop
  endfacet
  facet normal -0.570215 -0.821496 0.000000
    outer loop
      vertex -2.909000 -47.111000 5.000000
      vertex -2.994000 -47.052000 5.000000
      vertex -2.909000 -47.111000 0.000000
    endloop
  endfacet
  facet normal -0.999432 -0.033690 -0.000000
    outer loop
      vertex -2.909000 -47.111000 0.000000
      vertex -2.631000 -55.358000 0.000000
      vertex -2.909000 -47.111000 5.000000
    endloop
  endfacet
  facet normal -0.999432 -0.033690 0.000000
    outer loop
      vertex -2.909000 -47.111000 5.000000
      vertex -2.631000 -55.358000 0.000000
      vertex -2.631000 -55.358000 5.000000
    endloop
  endfacet
  facet normal -0.766034 -0.642800 -0.000000
    outer loop
      vertex -2.631000 -55.358000 0.000000
      vertex -1.400000 -56.825000 0.000000
      vertex -2.631000 -55.358000 5.000000
    endloop
  endfacet
  facet normal -0.766034 -0.642800 0.000000
    outer loop
      vertex -2.631000 -55.358000 5.000000
      vertex -1.400000 -56.825000 0.000000
      vertex -1.400000 -56.825000 5.000000
    endloop
  endfacet
  facet normal -0.173368 -0.984857 0.000000
    outer loop
      vertex -1.400000 -56.825000 5.000000
      vertex -1.400000 -56.825000 0.000000
      vertex 0.486000 -57.157000 0.000000
    endloop
  endfacet
  facet normal -0.173368 -0.984857 0.000000
    outer loop
      vertex 0.486000 -57.157000 5.000000
      vertex -1.400000 -56.825000 5.000000
      vertex 0.486000 -57.157000 0.000000
    endloop
  endfacet
  facet normal 0.499677 -0.866212 0.000000
    outer loop
      vertex 0.486000 -57.157000 5.000000
      vertex 0.486000 -57.157000 0.000000
      vertex 2.145000 -56.200000 0.000000
    endloop
  endfacet
  facet normal 0.499677 -0.866212 0.000000
    outer loop
      vertex 2.145000 -56.200000 5.000000
      vertex 0.486000 -57.157000 5.000000
      vertex 2.145000 -56.200000 0.000000
    endloop
  endfacet
  facet normal 0.939717 -0.341953 0.000000
    outer loop
      vertex 2.145000 -56.200000 5.000000
      vertex 2.145000 -56.200000 0.000000
      vertex 2.800000 -54.400000 0.000000
    endloop
  endfacet
  facet normal 0.939717 -0.341953 0.000000
    outer loop
      vertex 2.800000 -54.400000 5.000000
      vertex 2.145000 -56.200000 5.000000
      vertex 2.800000 -54.400000 0.000000
    endloop
  endfacet
  facet normal 0.999801 -0.019937 0.000000
    outer loop
      vertex 2.800000 -54.400000 5.000000
      vertex 2.800000 -54.400000 0.000000
      vertex 2.949000 -46.928000 0.000000
    endloop
  endfacet
  facet normal 0.999801 -0.019937 0.000000
    outer loop
      vertex 2.949000 -46.928000 5.000000
      vertex 2.800000 -54.400000 5.000000
      vertex 2.949000 -46.928000 0.000000
    endloop
  endfacet
  facet normal 0.748334 -0.663322 0.000000
    outer loop
      vertex 2.949000 -46.928000 5.000000
      vertex 2.949000 -46.928000 0.000000
      vertex 3.542000 -46.259000 0.000000
    endloop
  endfacet
  facet normal 0.748334 -0.663322 0.000000
    outer loop
      vertex 3.542000 -46.259000 5.000000
      vertex 2.949000 -46.928000 5.000000
      vertex 3.542000 -46.259000 0.000000
    endloop
  endfacet
  facet normal 0.955891 -0.293721 0.000000
    outer loop
      vertex 3.542000 -46.259000 5.000000
      vertex 3.542000 -46.259000 0.000000
      vertex 18.010000 0.826000 0.000000
    endloop
  endfacet
  facet normal 0.955891 -0.293721 0.000000
    outer loop
      vertex 18.010000 0.826000 5.000000
      vertex 3.542000 -46.259000 5.000000
      vertex 18.010000 0.826000 0.000000
    endloop
  endfacet
  facet normal 0.992690 -0.120692 0.000000
    outer loop
      vertex 18.010000 0.826000 5.000000
      vertex 18.010000 0.826000 0.000000
      vertex 18.250000 2.800000 0.000000
    endloop
  endfacet
  facet normal 0.992690 -0.120692 0.000000
    outer loop
      vertex 18.250000 2.800000 5.000000
      vertex 18.010000 0.826000 5.000000
      vertex 18.250000 2.800000 0.000000
    endloop
  endfacet
  facet normal 0.992690 0.120692 0.000000
    outer loop
      vertex 18.250000 2.800000 0.000000
      vertex 18.010000 4.774000 0.000000
      vertex 18.010000 4.774000 5.000000
    endloop
  endfacet
  facet normal 0.992690 0.120692 -0.000000
    outer loop
      vertex 18.250000 2.800000 5.000000
      vertex 18.250000 2.800000 0.000000
      vertex 18.010000 4.774000 5.000000
    endloop
  endfacet
  facet normal 0.935084 0.354427 0.000000
    outer loop
      vertex 18.010000 4.774000 0.000000
      vertex 17.305000 6.634000 0.000000
      vertex 17.305000 6.634000 5.000000
    endloop
  endfacet
  facet normal 0.935084 0.354427 -0.000000
    outer loop
      vertex 18.010000 4.774000 5.000000
      vertex 18.010000 4.774000 0.000000
      vertex 17.305000 6.634000 5.000000
    endloop
  endfacet
  facet normal 0.906319 0.422595 0.000000
    outer loop
      vertex 17.305000 6.634000 0.000000
      vertex 11.650000 18.762000 0.000000
      vertex 11.650000 18.762000 5.000000
    endloop
  endfacet
  facet normal 0.906319 0.422595 -0.000000
    outer loop
      vertex 17.305000 6.634000 5.000000
      vertex 17.305000 6.634000 0.000000
      vertex 11.650000 18.762000 5.000000
    endloop
  endfacet
  facet normal 0.866039 0.499976 0.000000
    outer loop
      vertex 11.650000 18.762000 0.000000
      vertex 10.683000 20.437000 0.000000
      vertex 10.683000 20.437000 5.000000
    endloop
  endfacet
  facet normal 0.866039 0.499976 -0.000000
    outer loop
      vertex 11.650000 18.762000 5.000000
      vertex 11.650000 18.762000 0.000000
      vertex 10.683000 20.437000 5.000000
    endloop
  endfacet
  facet normal 0.743114 0.669165 0.000000
    outer loop
      vertex 10.683000 20.437000 0.000000
      vertex 9.389000 21.874000 0.000000
      vertex 9.389000 21.874000 5.000000
    endloop
  endfacet
  facet normal 0.743114 0.669165 -0.000000
    outer loop
      vertex 10.683000 20.437000 5.000000
      vertex 10.683000 20.437000 0.000000
      vertex 9.389000 21.874000 5.000000
    endloop
  endfacet
  facet normal 0.588018 0.808848 0.000000
    outer loop
      vertex 7.825000 23.011000 0.000000
      vertex 7.825000 23.011000 5.000000
      vertex 9.389000 21.874000 0.000000
    endloop
  endfacet
  facet normal 0.588018 0.808848 0.000000
    outer loop
      vertex 9.389000 21.874000 0.000000
      vertex 7.825000 23.011000 5.000000
      vertex 9.389000 21.874000 5.000000
    endloop
  endfacet
  facet normal 0.406426 0.913684 0.000000
    outer loop
      vertex 6.058000 23.797000 0.000000
      vertex 6.058000 23.797000 5.000000
      vertex 7.825000 23.011000 0.000000
    endloop
  endfacet
  facet normal 0.406426 0.913684 0.000000
    outer loop
      vertex 7.825000 23.011000 0.000000
      vertex 6.058000 23.797000 5.000000
      vertex 7.825000 23.011000 5.000000
    endloop
  endfacet
  facet normal 0.207939 0.978142 0.000000
    outer loop
      vertex 4.167000 24.199000 0.000000
      vertex 4.167000 24.199000 5.000000
      vertex 6.058000 23.797000 0.000000
    endloop
  endfacet
  facet normal 0.207939 0.978142 0.000000
    outer loop
      vertex 6.058000 23.797000 0.000000
      vertex 4.167000 24.199000 5.000000
      vertex 6.058000 23.797000 5.000000
    endloop
  endfacet
  facet normal 0.000000 1.000000 0.000000
    outer loop
      vertex 2.233000 24.199000 0.000000
      vertex 2.233000 24.199000 5.000000
      vertex 4.167000 24.199000 0.000000
    endloop
  endfacet
  facet normal 0.000000 1.000000 0.000000
    outer loop
      vertex 4.167000 24.199000 0.000000
      vertex 2.233000 24.199000 5.000000
      vertex 4.167000 24.199000 5.000000
    endloop
  endfacet
  facet normal -0.207939 0.978142 0.000000
    outer loop
      vertex 0.342000 23.797000 0.000000
      vertex 0.342000 23.797000 5.000000
      vertex 2.233000 24.199000 0.000000
    endloop
  endfacet
  facet normal -0.207939 0.978142 0.000000
    outer loop
      vertex 2.233000 24.199000 0.000000
      vertex 0.342000 23.797000 5.000000
      vertex 2.233000 24.199000 5.000000
    endloop
  endfacet
  facet normal -0.406426 0.913684 0.000000
    outer loop
      vertex -1.425000 23.011000 0.000000
      vertex -1.425000 23.011000 5.000000
      vertex 0.342000 23.797000 0.000000
    endloop
  endfacet
  facet normal -0.406426 0.913684 0.000000
    outer loop
      vertex 0.342000 23.797000 0.000000
      vertex -1.425000 23.011000 5.000000
      vertex 0.342000 23.797000 5.000000
    endloop
  endfacet
  facet normal -0.588018 0.808848 0.000000
    outer loop
      vertex -2.989000 21.874000 0.000000
      vertex -2.989000 21.874000 5.000000
      vertex -1.425000 23.011000 0.000000
    endloop
  endfacet
  facet normal -0.588018 0.808848 0.000000
    outer loop
      vertex -1.425000 23.011000 0.000000
      vertex -2.989000 21.874000 5.000000
      vertex -1.425000 23.011000 5.000000
    endloop
  endfacet
  facet normal -0.743114 0.669165 0.000000
    outer loop
      vertex -4.283000 20.437000 0.000000
      vertex -4.283000 20.437000 5.000000
      vertex -2.989000 21.874000 0.000000
    endloop
  endfacet
  facet normal -0.743114 0.669165 0.000000
    outer loop
      vertex -2.989000 21.874000 0.000000
      vertex -4.283000 20.437000 5.000000
      vertex -2.989000 21.874000 5.000000
    endloop
  endfacet
  facet normal -0.866039 0.499976 0.000000
    outer loop
      vertex -5.250000 18.762000 0.000000
      vertex -5.250000 18.762000 5.000000
      vertex -4.283000 20.437000 0.000000
    endloop
  endfacet
  facet normal -0.866039 0.499976 0.000000
    outer loop
      vertex -4.283000 20.437000 0.000000
      vertex -5.250000 18.762000 5.000000
      vertex -4.283000 20.437000 5.000000
    endloop
  endfacet
  facet normal -0.950985 0.309238 0.000000
    outer loop
      vertex -5.848000 16.923000 0.000000
      vertex -5.848000 16.923000 5.000000
      vertex -5.250000 18.762000 0.000000
    endloop
  endfacet
  facet normal -0.950985 0.309238 0.000000
    outer loop
      vertex -5.250000 18.762000 0.000000
      vertex -5.848000 16.923000 5.000000
      vertex -5.250000 18.762000 5.000000
    endloop
  endfacet
  facet normal -0.994528 0.104469 0.000000
    outer loop
      vertex -5.892434 16.500000 0.000000
      vertex -5.892434 16.500000 5.000000
      vertex -5.848000 16.923000 0.000000
    endloop
  endfacet
  facet normal -0.994528 0.104469 0.000000
    outer loop
      vertex -5.848000 16.923000 0.000000
      vertex -5.892434 16.500000 5.000000
      vertex -5.848000 16.923000 5.000000
    endloop
  endfacet
  facet normal 0.000000 -1.000000 0.000000
    outer loop
      vertex 6.250000 16.500000 0.000000
      vertex 6.250000 16.500000 5.000000
      vertex -5.892434 16.500000 5.000000
    endloop
  endfacet
  facet normal -0.000000 -1.000000 -0.000000
    outer loop
      vertex -5.892434 16.500000 0.000000
      vertex 6.250000 16.500000 0.000000
      vertex -5.892434 16.500000 5.000000
    endloop
  endfacet
  facet normal -1.000000 0.000000 0.000000
    outer loop
      vertex 6.250000 16.500000 5.000000
      vertex 6.250000 16.500000 0.000000
      vertex 6.250000 -6.500000 5.000000
    endloop
  endfacet
  facet normal -1.000000 0.000000 0.000000
    outer loop
      vertex 6.250000 -6.500000 5.000000
      vertex 6.250000 16.500000 0.000000
      vertex 6.250000 -6.500000 0.000000
    endloop
  endfacet
  facet normal 0.995185 0.098019 0.000000
    outer loop
      vertex -1.000000 -9.000000 5.000000
      vertex -0.980785 -9.195090 5.000000
      vertex -0.980785 -9.195090 0.000000
    endloop
  endfacet
  facet normal 0.995185 0.098019 0.000000
    outer loop
      vertex -1.000000 -9.000000 0.000000
      vertex -1.000000 -9.000000 5.000000
      vertex -0.980785 -9.195090 0.000000
    endloop
  endfacet
  facet normal 0.995185 -0.098019 0.000000
    outer loop
      vertex -0.980785 -8.804910 0.000000
      vertex -0.980785 -8.804910 5.000000
      vertex -1.000000 -9.000000 5.000000
    endloop
  endfacet
  facet normal 0.995185 -0.098019 0.000000
    outer loop
      vertex -1.000000 -9.000000 0.000000
      vertex -0.980785 -8.804910 0.000000
      vertex -1.000000 -9.000000 5.000000
    endloop
  endfacet
  facet normal 0.956941 -0.290281 0.000000
    outer loop
      vertex -0.923880 -8.617317 0.000000
      vertex -0.923880 -8.617317 5.000000
      vertex -0.980785 -8.804910 5.000000
    endloop
  endfacet
  facet normal 0.956941 -0.290281 0.000000
    outer loop
      vertex -0.980785 -8.804910 0.000000
      vertex -0.923880 -8.617317 0.000000
      vertex -0.980785 -8.804910 5.000000
    endloop
  endfacet
  facet normal 0.881921 -0.471397 0.000000
    outer loop
      vertex -0.831470 -8.444430 0.000000
      vertex -0.831470 -8.444430 5.000000
      vertex -0.923880 -8.617317 5.000000
    endloop
  endfacet
  facet normal 0.881921 -0.471397 0.000000
    outer loop
      vertex -0.923880 -8.617317 0.000000
      vertex -0.831470 -8.444430 0.000000
      vertex -0.923880 -8.617317 5.000000
    endloop
  endfacet
  facet normal 0.773011 -0.634393 0.000000
    outer loop
      vertex -0.707107 -8.292893 0.000000
      vertex -0.707107 -8.292893 5.000000
      vertex -0.831470 -8.444430 5.000000
    endloop
  endfacet
  facet normal 0.773011 -0.634393 0.000000
    outer loop
      vertex -0.831470 -8.444430 0.000000
      vertex -0.707107 -8.292893 0.000000
      vertex -0.831470 -8.444430 5.000000
    endloop
  endfacet
  facet normal 0.634393 -0.773011 0.000000
    outer loop
      vertex -0.555570 -8.168530 0.000000
      vertex -0.555570 -8.168530 5.000000
      vertex -0.707107 -8.292893 5.000000
    endloop
  endfacet
  facet normal 0.634393 -0.773011 0.000000
    outer loop
      vertex -0.707107 -8.292893 0.000000
      vertex -0.555570 -8.168530 0.000000
      vertex -0.707107 -8.292893 5.000000
    endloop
  endfacet
  facet normal 0.471397 -0.881921 0.000000
    outer loop
      vertex -0.382683 -8.076120 0.000000
      vertex -0.382683 -8.076120 5.000000
      vertex -0.555570 -8.168530 5.000000
    endloop
  endfacet
  facet normal 0.471397 -0.881921 0.000000
    outer loop
      vertex -0.555570 -8.168530 0.000000
      vertex -0.382683 -8.076120 0.000000
      vertex -0.555570 -8.168530 5.000000
    endloop
  endfacet
  facet normal 0.290281 -0.956941 0.000000
    outer loop
      vertex -0.195090 -8.019215 0.000000
      vertex -0.195090 -8.019215 5.000000
      vertex -0.382683 -8.076120 5.000000
    endloop
  endfacet
  facet normal 0.290281 -0.956941 0.000000
    outer loop
      vertex -0.382683 -8.076120 0.000000
      vertex -0.195090 -8.019215 0.000000
      vertex -0.382683 -8.076120 5.000000
    endloop
  endfacet
  facet normal 0.098019 -0.995185 0.000000
    outer loop
      vertex 0.000000 -8.000000 0.000000
      vertex 0.000000 -8.000000 5.000000
      vertex -0.195090 -8.019215 5.000000
    endloop
  endfacet
  facet normal 0.098019 -0.995185 0.000000
    outer loop
      vertex -0.195090 -8.019215 0.000000
      vertex 0.000000 -8.000000 0.000000
      vertex -0.195090 -8.019215 5.000000
    endloop
  endfacet
  facet normal -0.098019 -0.995185 -0.000000
    outer loop
      vertex 0.195090 -8.019215 0.000000
      vertex 0.195090 -8.019215 5.000000
      vertex 0.000000 -8.000000 5.000000
    endloop
  endfacet
  facet normal -0.098019 -0.995185 -0.000000
    outer loop
      vertex 0.000000 -8.000000 0.000000
      vertex 0.195090 -8.019215 0.000000
      vertex 0.000000 -8.000000 5.000000
    endloop
  endfacet
  facet normal -0.290281 -0.956941 -0.000000
    outer loop
      vertex 0.382683 -8.076120 0.000000
      vertex 0.382683 -8.076120 5.000000
      vertex 0.195090 -8.019215 5.000000
    endloop
  endfacet
  facet normal -0.290281 -0.956941 -0.000000
    outer loop
      vertex 0.195090 -8.019215 0.000000
      vertex 0.382683 -8.076120 0.000000
      vertex 0.195090 -8.019215 5.000000
    endloop
  endfacet
  facet normal -0.471397 -0.881921 -0.000000
    outer loop
      vertex 0.555570 -8.168530 0.000000
      vertex 0.555570 -8.168530 5.000000
      vertex 0.382683 -8.076120 5.000000
    endloop
  endfacet
  facet normal -0.471397 -0.881921 -0.000000
    outer loop
      vertex 0.382683 -8.076120 0.000000
      vertex 0.555570 -8.168530 0.000000
      vertex 0.382683 -8.076120 5.000000
    endloop
  endfacet
  facet normal -0.634393 -0.773011 -0.000000
    outer loop
      vertex 0.707107 -8.292893 0.000000
      vertex 0.707107 -8.292893 5.000000
      vertex 0.555570 -8.168530 5.000000
    endloop
  endfacet
  facet normal -0.634393 -0.773011 -0.000000
    outer loop
      vertex 0.555570 -8.168530 0.000000
      vertex 0.707107 -8.292893 0.000000
      vertex 0.555570 -8.168530 5.000000
    endloop
  endfacet
  facet normal -0.773011 -0.634393 0.000000
    outer loop
      vertex 0.831470 -8.444430 5.000000
      vertex 0.707107 -8.292893 5.000000
      vertex 0.831470 -8.444430 0.000000
    endloop
  endfacet
  facet normal -0.773011 -0.634393 0.000000
    outer loop
      vertex 0.831470 -8.444430 0.000000
      vertex 0.707107 -8.292893 5.000000
      vertex 0.707107 -8.292893 0.000000
    endloop
  endfacet
  facet normal -0.881921 -0.471397 0.000000
    outer loop
      vertex 0.923880 -8.617317 5.000000
      vertex 0.831470 -8.444430 5.000000
      vertex 0.923880 -8.617317 0.000000
    endloop
  endfacet
  facet normal -0.881921 -0.471397 0.000000
    outer loop
      vertex 0.923880 -8.617317 0.000000
      vertex 0.831470 -8.444430 5.000000
      vertex 0.831470 -8.444430 0.000000
    endloop
  endfacet
  facet normal -0.956941 -0.290281 0.000000
    outer loop
      vertex 0.980785 -8.804910 5.000000
      vertex 0.923880 -8.617317 5.000000
      vertex 0.980785 -8.804910 0.000000
    endloop
  endfacet
  facet normal -0.956941 -0.290281 0.000000
    outer loop
      vertex 0.980785 -8.804910 0.000000
      vertex 0.923880 -8.617317 5.000000
      vertex 0.923880 -8.617317 0.000000
    endloop
  endfacet
  facet normal -0.995185 -0.098019 0.000000
    outer loop
      vertex 1.000000 -9.000000 5.000000
      vertex 0.980785 -8.804910 5.000000
      vertex 1.000000 -9.000000 0.000000
    endloop
  endfacet
  facet normal -0.995185 -0.098019 0.000000
    outer loop
      vertex 1.000000 -9.000000 0.000000
      vertex 0.980785 -8.804910 5.000000
      vertex 0.980785 -8.804910 0.000000
    endloop
  endfacet
  facet normal -0.995185 0.098019 0.000000
    outer loop
      vertex 1.000000 -9.000000 5.000000
      vertex 1.000000 -9.000000 0.000000
      vertex 0.980785 -9.195090 5.000000
    endloop
  endfacet
  facet normal -0.995185 0.098019 0.000000
    outer loop
      vertex 0.980785 -9.195090 5.000000
      vertex 1.000000 -9.000000 0.000000
      vertex 0.980785 -9.195090 0.000000
    endloop
  endfacet
  facet normal -0.956941 0.290281 0.000000
    outer loop
      vertex 0.980785 -9.195090 5.000000
      vertex 0.980785 -9.195090 0.000000
      vertex 0.923880 -9.382683 5.000000
    endloop
  endfacet
  facet normal -0.956941 0.290281 0.000000
    outer loop
      vertex 0.923880 -9.382683 5.000000
      vertex 0.980785 -9.195090 0.000000
      vertex 0.923880 -9.382683 0.000000
    endloop
  endfacet
  facet normal -0.881921 0.471397 0.000000
    outer loop
      vertex 0.923880 -9.382683 5.000000
      vertex 0.923880 -9.382683 0.000000
      vertex 0.831470 -9.555570 5.000000
    endloop
  endfacet
  facet normal -0.881921 0.471397 0.000000
    outer loop
      vertex 0.831470 -9.555570 5.000000
      vertex 0.923880 -9.382683 0.000000
      vertex 0.831470 -9.555570 0.000000
    endloop
  endfacet
  facet normal -0.773011 0.634393 0.000000
    outer loop
      vertex 0.831470 -9.555570 5.000000
      vertex 0.831470 -9.555570 0.000000
      vertex 0.707107 -9.707107 5.000000
    endloop
  endfacet
  facet normal -0.773011 0.634393 0.000000
    outer loop
      vertex 0.707107 -9.707107 5.000000
      vertex 0.831470 -9.555570 0.000000
      vertex 0.707107 -9.707107 0.000000
    endloop
  endfacet
  facet normal -0.634393 0.773011 0.000000
    outer loop
      vertex 0.707107 -9.707107 5.000000
      vertex 0.707107 -9.707107 0.000000
      vertex 0.555570 -9.831470 5.000000
    endloop
  endfacet
  facet normal -0.634393 0.773011 0.000000
    outer loop
      vertex 0.555570 -9.831470 5.000000
      vertex 0.707107 -9.707107 0.000000
      vertex 0.555570 -9.831470 0.000000
    endloop
  endfacet
  facet normal -0.471397 0.881921 0.000000
    outer loop
      vertex 0.555570 -9.831470 5.000000
      vertex 0.555570 -9.831470 0.000000
      vertex 0.382683 -9.923880 5.000000
    endloop
  endfacet
  facet normal -0.471397 0.881921 0.000000
    outer loop
      vertex 0.382683 -9.923880 5.000000
      vertex 0.555570 -9.831470 0.000000
      vertex 0.382683 -9.923880 0.000000
    endloop
  endfacet
  facet normal -0.290281 0.956941 0.000000
    outer loop
      vertex 0.382683 -9.923880 5.000000
      vertex 0.382683 -9.923880 0.000000
      vertex 0.195090 -9.980785 5.000000
    endloop
  endfacet
  facet normal -0.290281 0.956941 0.000000
    outer loop
      vertex 0.195090 -9.980785 5.000000
      vertex 0.382683 -9.923880 0.000000
      vertex 0.195090 -9.980785 0.000000
    endloop
  endfacet
  facet normal -0.098019 0.995185 0.000000
    outer loop
      vertex 0.195090 -9.980785 5.000000
      vertex 0.195090 -9.980785 0.000000
      vertex 0.000000 -10.000000 5.000000
    endloop
  endfacet
  facet normal -0.098019 0.995185 0.000000
    outer loop
      vertex 0.000000 -10.000000 5.000000
      vertex 0.195090 -9.980785 0.000000
      vertex 0.000000 -10.000000 0.000000
    endloop
  endfacet
  facet normal 0.098019 0.995185 -0.000000
    outer loop
      vertex 0.000000 -10.000000 5.000000
      vertex 0.000000 -10.000000 0.000000
      vertex -0.195090 -9.980785 5.000000
    endloop
  endfacet
  facet normal 0.098019 0.995185 -0.000000
    outer loop
      vertex -0.195090 -9.980785 5.000000
      vertex 0.000000 -10.000000 0.000000
      vertex -0.195090 -9.980785 0.000000
    endloop
  endfacet
  facet normal 0.290281 0.956941 -0.000000
    outer loop
      vertex -0.195090 -9.980785 5.000000
      vertex -0.195090 -9.980785 0.000000
      vertex -0.382683 -9.923880 5.000000
    endloop
  endfacet
  facet normal 0.290281 0.956941 -0.000000
    outer loop
      vertex -0.382683 -9.923880 5.000000
      vertex -0.195090 -9.980785 0.000000
      vertex -0.382683 -9.923880 0.000000
    endloop
  endfacet
  facet normal 0.471397 0.881921 -0.000000
    outer loop
      vertex -0.382683 -9.923880 5.000000
      vertex -0.382683 -9.923880 0.000000
      vertex -0.555570 -9.831470 5.000000
    endloop
  endfacet
  facet normal 0.471397 0.881921 -0.000000
    outer loop
      vertex -0.555570 -9.831470 5.000000
      vertex -0.382683 -9.923880 0.000000
      vertex -0.555570 -9.831470 0.000000
    endloop
  endfacet
  facet normal 0.634393 0.773011 -0.000000
    outer loop
      vertex -0.555570 -9.831470 5.000000
      vertex -0.555570 -9.831470 0.000000
      vertex -0.707107 -9.707107 5.000000
    endloop
  endfacet
  facet normal 0.634393 0.773011 -0.000000
    outer loop
      vertex -0.707107 -9.707107 5.000000
      vertex -0.555570 -9.831470 0.000000
      vertex -0.707107 -9.707107 0.000000
    endloop
  endfacet
  facet normal 0.773011 0.634393 0.000000
    outer loop
      vertex -0.831470 -9.555570 5.000000
      vertex -0.707107 -9.707107 5.000000
      vertex -0.707107 -9.707107 0.000000
    endloop
  endfacet
  facet normal 0.773011 0.634393 0.000000
    outer loop
      vertex -0.831470 -9.555570 0.000000
      vertex -0.831470 -9.555570 5.000000
      vertex -0.707107 -9.707107 0.000000
    endloop
  endfacet
  facet normal 0.881921 0.471397 0.000000
    outer loop
      vertex -0.923880 -9.382683 5.000000
      vertex -0.831470 -9.555570 5.000000
      vertex -0.831470 -9.555570 0.000000
    endloop
  endfacet
  facet normal 0.881921 0.471397 0.000000
    outer loop
      vertex -0.923880 -9.382683 0.000000
      vertex -0.923880 -9.382683 5.000000
      vertex -0.831470 -9.555570 0.000000
    endloop
  endfacet
  facet normal 0.956941 0.290281 0.000000
    outer loop
      vertex -0.980785 -9.195090 5.000000
      vertex -0.923880 -9.382683 5.000000
      vertex -0.923880 -9.382683 0.000000
    endloop
  endfacet
  facet normal 0.956941 0.290281 0.000000
    outer loop
      vertex -0.980785 -9.195090 0.000000
      vertex -0.980785 -9.195090 5.000000
      vertex -0.923880 -9.382683 0.000000
    endloop
  endfacet
  facet normal 0.995185 0.098019 0.000000
    outer loop
      vertex -1.000000 19.000000 5.000000
      vertex -0.980785 18.804910 5.000000
      vertex -0.980785 18.804910 0.000000
    endloop
  endfacet
  facet normal 0.995185 0.098019 0.000000
    outer loop
      vertex -1.000000 19.000000 0.000000
      vertex -1.000000 19.000000 5.000000
      vertex -0.980785 18.804910 0.000000
    endloop
  endfacet
  facet normal 0.995185 -0.098019 0.000000
    outer loop
      vertex -0.980785 19.195090 0.000000
      vertex -0.980785 19.195090 5.000000
      vertex -1.000000 19.000000 5.000000
    endloop
  endfacet
  facet normal 0.995185 -0.098019 0.000000
    outer loop
      vertex -1.000000 19.000000 0.000000
      vertex -0.980785 19.195090 0.000000
      vertex -1.000000 19.000000 5.000000
    endloop
  endfacet
  facet normal 0.956941 -0.290281 0.000000
    outer loop
      vertex -0.923880 19.382683 0.000000
      vertex -0.923880 19.382683 5.000000
      vertex -0.980785 19.195090 5.000000
    endloop
  endfacet
  facet normal 0.956941 -0.290281 0.000000
    outer loop
      vertex -0.980785 19.195090 0.000000
      vertex -0.923880 19.382683 0.000000
      vertex -0.980785 19.195090 5.000000
    endloop
  endfacet
  facet normal 0.881921 -0.471397 0.000000
    outer loop
      vertex -0.831470 19.555570 0.000000
      vertex -0.831470 19.555570 5.000000
      vertex -0.923880 19.382683 5.000000
    endloop
  endfacet
  facet normal 0.881921 -0.471397 0.000000
    outer loop
      vertex -0.923880 19.382683 0.000000
      vertex -0.831470 19.555570 0.000000
      vertex -0.923880 19.382683 5.000000
    endloop
  endfacet
  facet normal 0.773011 -0.634393 0.000000
    outer loop
      vertex -0.707107 19.707107 0.000000
      vertex -0.707107 19.707107 5.000000
      vertex -0.831470 19.555570 5.000000
    endloop
  endfacet
  facet normal 0.773011 -0.634393 0.000000
    outer loop
      vertex -0.831470 19.555570 0.000000
      vertex -0.707107 19.707107 0.000000
      vertex -0.831470 19.555570 5.000000
    endloop
  endfacet
  facet normal 0.634393 -0.773011 0.000000
    outer loop
      vertex -0.555570 19.831470 0.000000
      vertex -0.555570 19.831470 5.000000
      vertex -0.707107 19.707107 5.000000
    endloop
  endfacet
  facet normal 0.634393 -0.773011 0.000000
    outer loop
      vertex -0.707107 19.707107 0.000000
      vertex -0.555570 19.831470 0.000000
      vertex -0.707107 19.707107 5.000000
    endloop
  endfacet
  facet normal 0.471397 -0.881921 0.000000
    outer loop
      vertex -0.382683 19.923880 0.000000
      vertex -0.382683 19.923880 5.000000
      vertex -0.555570 19.831470 5.000000
    endloop
  endfacet
  facet normal 0.471397 -0.881921 0.000000
    outer loop
      vertex -0.555570 19.831470 0.000000
      vertex -0.382683 19.923880 0.000000
      vertex -0.555570 19.831470 5.000000
    endloop
  endfacet
  facet normal 0.290281 -0.956941 0.000000
    outer loop
      vertex -0.195090 19.980785 0.000000
      vertex -0.195090 19.980785 5.000000
      vertex -0.382683 19.923880 5.000000
    endloop
  endfacet
  facet normal 0.290281 -0.956941 0.000000
    outer loop
      vertex -0.382683 19.923880 0.000000
      vertex -0.195090 19.980785 0.000000
      vertex -0.382683 19.923880 5.000000
    endloop
  endfacet
  facet normal 0.098019 -0.995185 0.000000
    outer loop
      vertex 0.000000 20.000000 0.000000
      vertex 0.000000 20.000000 5.000000
      vertex -0.195090 19.980785 5.000000
    endloop
  endfacet
  facet normal 0.098019 -0.995185 0.000000
    outer loop
      vertex -0.195090 19.980785 0.000000
      vertex 0.000000 20.000000 0.000000
      vertex -0.195090 19.980785 5.000000
    endloop
  endfacet
  facet normal -0.098019 -0.995185 -0.000000
    outer loop
      vertex 0.195090 19.980785 0.000000
      vertex 0.195090 19.980785 5.000000
      vertex 0.000000 20.000000 5.000000
    endloop
  endfacet
  facet normal -0.098019 -0.995185 -0.000000
    outer loop
      vertex 0.000000 20.000000 0.000000
      vertex 0.195090 19.980785 0.000000
      vertex 0.000000 20.000000 5.000000
    endloop
  endfacet
  facet normal -0.290281 -0.956941 -0.000000
    outer loop
      vertex 0.382683 19.923880 0.000000
      vertex 0.382683 19.923880 5.000000
      vertex 0.195090 19.980785 5.000000
    endloop
  endfacet
  facet normal -0.290281 -0.956941 -0.000000
    outer loop
      vertex 0.195090 19.980785 0.000000
      vertex 0.382683 19.923880 0.000000
      vertex 0.195090 19.980785 5.000000
    endloop
  endfacet
  facet normal -0.471397 -0.881921 -0.000000
    outer loop
      vertex 0.555570 19.831470 0.000000
      vertex 0.555570 19.831470 5.000000
      vertex 0.382683 19.923880 5.000000
    endloop
  endfacet
  facet normal -0.471397 -0.881921 -0.000000
    outer loop
      vertex 0.382683 19.923880 0.000000
      vertex 0.555570 19.831470 0.000000
      vertex 0.382683 19.923880 5.000000
    endloop
  endfacet
  facet normal -0.634393 -0.773011 -0.000000
    outer loop
      vertex 0.707107 19.707107 0.000000
      vertex 0.707107 19.707107 5.000000
      vertex 0.555570 19.831470 5.000000
    endloop
  endfacet
  facet normal -0.634393 -0.773011 -0.000000
    outer loop
      vertex 0.555570 19.831470 0.000000
      vertex 0.707107 19.707107 0.000000
      vertex 0.555570 19.831470 5.000000
    endloop
  endfacet
  facet normal -0.773011 -0.634393 0.000000
    outer loop
      vertex 0.831470 19.555570 5.000000
      vertex 0.707107 19.707107 5.000000
      vertex 0.831470 19.555570 0.000000
    endloop
  endfacet
  facet normal -0.773011 -0.634393 0.000000
    outer loop
      vertex 0.831470 19.555570 0.000000
      vertex 0.707107 19.707107 5.000000
      vertex 0.707107 19.707107 0.000000
    endloop
  endfacet
  facet normal -0.881921 -0.471397 0.000000
    outer loop
      vertex 0.923880 19.382683 5.000000
      vertex 0.831470 19.555570 5.000000
      vertex 0.923880 19.382683 0.000000
    endloop
  endfacet
  facet normal -0.881921 -0.471397 0.000000
    outer loop
      vertex 0.923880 19.382683 0.000000
      vertex 0.831470 19.555570 5.000000
      vertex 0.831470 19.555570 0.000000
    endloop
  endfacet
  facet normal -0.956941 -0.290281 0.000000
    outer loop
      vertex 0.980785 19.195090 5.000000
      vertex 0.923880 19.382683 5.000000
      vertex 0.980785 19.195090 0.000000
    endloop
  endfacet
  facet normal -0.956941 -0.290281 0.000000
    outer loop
      vertex 0.980785 19.195090 0.000000
      vertex 0.923880 19.382683 5.000000
      vertex 0.923880 19.382683 0.000000
    endloop
  endfacet
  facet normal -0.995185 -0.098019 0.000000
    outer loop
      vertex 1.000000 19.000000 5.000000
      vertex 0.980785 19.195090 5.000000
      vertex 1.000000 19.000000 0.000000
    endloop
  endfacet
  facet normal -0.995185 -0.098019 0.000000
    outer loop
      vertex 1.000000 19.000000 0.000000
      vertex 0.980785 19.195090 5.000000
      vertex 0.980785 19.195090 0.000000
    endloop
  endfacet
  facet normal -0.995185 0.098019 0.000000
    outer loop
      vertex 1.000000 19.000000 5.000000
      vertex 1.000000 19.000000 0.000000
      vertex 0.980785 18.804910 5.000000
    endloop
  endfacet
  facet normal -0.995185 0.098019 0.000000
    outer loop
      vertex 0.980785 18.804910 5.000000
      vertex 1.000000 19.000000 0.000000
      vertex 0.980785 18.804910 0.000000
    endloop
  endfacet
  facet normal -0.956941 0.290281 0.000000
    outer loop
      vertex 0.980785 18.804910 5.000000
      vertex 0.980785 18.804910 0.000000
      vertex 0.923880 18.617317 5.000000
    endloop
  endfacet
  facet normal -0.956941 0.290281 0.000000
    outer loop
      vertex 0.923880 18.617317 5.000000
      vertex 0.980785 18.804910 0.000000
      vertex 0.923880 18.617317 0.000000
    endloop
  endfacet
  facet normal -0.881921 0.471397 0.000000
    outer loop
      vertex 0.923880 18.617317 5.000000
      vertex 0.923880 18.617317 0.000000
      vertex 0.831470 18.444430 5.000000
    endloop
  endfacet
  facet normal -0.881921 0.471397 0.000000
    outer loop
      vertex 0.831470 18.444430 5.000000
      vertex 0.923880 18.617317 0.000000
      vertex 0.831470 18.444430 0.000000
    endloop
  endfacet
  facet normal -0.773011 0.634393 0.000000
    outer loop
      vertex 0.831470 18.444430 5.000000
      vertex 0.831470 18.444430 0.000000
      vertex 0.707107 18.292893 5.000000
    endloop
  endfacet
  facet normal -0.773011 0.634393 0.000000
    outer loop
      vertex 0.707107 18.292893 5.000000
      vertex 0.831470 18.444430 0.000000
      vertex 0.707107 18.292893 0.000000
    endloop
  endfacet
  facet normal -0.634393 0.773011 0.000000
    outer loop
      vertex 0.707107 18.292893 5.000000
      vertex 0.707107 18.292893 0.000000
      vertex 0.555570 18.168530 5.000000
    endloop
  endfacet
  facet normal -0.634393 0.773011 0.000000
    outer loop
      vertex 0.555570 18.168530 5.000000
      vertex 0.707107 18.292893 0.000000
      vertex 0.555570 18.168530 0.000000
    endloop
  endfacet
  facet normal -0.471397 0.881921 0.000000
    outer loop
      vertex 0.555570 18.168530 5.000000
      vertex 0.555570 18.168530 0.000000
      vertex 0.382683 18.076120 5.000000
    endloop
  endfacet
  facet normal -0.471397 0.881921 0.000000
    outer loop
      vertex 0.382683 18.076120 5.000000
      vertex 0.555570 18.168530 0.000000
      vertex 0.382683 18.076120 0.000000
    endloop
  endfacet
  facet normal -0.290281 0.956941 0.000000
    outer loop
      vertex 0.382683 18.076120 5.000000
      vertex 0.382683 18.076120 0.000000
      vertex 0.195090 18.019215 5.000000
    endloop
  endfacet
  facet normal -0.290281 0.956941 0.000000
    outer loop
      vertex 0.195090 18.019215 5.000000
      vertex 0.382683 18.076120 0.000000
      vertex 0.195090 18.019215 0.000000
    endloop
  endfacet
  facet normal -0.098019 0.995185 0.000000
    outer loop
      vertex 0.195090 18.019215 5.000000
      vertex 0.195090 18.019215 0.000000
      vertex 0.000000 18.000000 5.000000
    endloop
  endfacet
  facet normal -0.098019 0.995185 0.000000
    outer loop
      vertex 0.000000 18.000000 5.000000
      vertex 0.195090 18.019215 0.000000
      vertex 0.000000 18.000000 0.000000
    endloop
  endfacet
  facet normal 0.098019 0.995185 -0.000000
    outer loop
      vertex 0.000000 18.000000 5.000000
      vertex 0.000000 18.000000 0.000000
      vertex -0.195090 18.019215 5.000000
    endloop
  endfacet
  facet normal 0.098019 0.995185 -0.000000
    outer loop
      vertex -0.195090 18.019215 5.000000
      vertex 0.000000 18.000000 0.000000
      vertex -0.195090 18.019215 0.000000
    endloop
  endfacet
  facet normal 0.290281 0.956941 -0.000000
    outer loop
      vertex -0.195090 18.019215 5.000000
      vertex -0.195090 18.019215 0.000000
      vertex -0.382683 18.076120 5.000000
    endloop
  endfacet
  facet normal 0.290281 0.956941 -0.000000
    outer loop
      vertex -0.382683 18.076120 5.000000
      vertex -0.195090 18.019215 0.000000
      vertex -0.382683 18.076120 0.000000
    endloop
  endfacet
  facet normal 0.471397 0.881921 -0.000000
    outer loop
      vertex -0.382683 18.076120 5.000000
      vertex -0.382683 18.076120 0.000000
      vertex -0.555570 18.168530 5.000000
    endloop
  endfacet
  facet normal 0.471397 0.881921 -0.000000
    outer loop
      vertex -0.555570 18.168530 5.000000
      vertex -0.382683 18.076120 0.000000
      vertex -0.555570 18.168530 0.000000
    endloop
  endfacet
  facet normal 0.634393 0.773011 -0.000000
    outer loop
      vertex -0.555570 18.168530 5.000000
      vertex -0.555570 18.168530 0.000000
      vertex -0.707107 18.292893 5.000000
    endloop
  endfacet
  facet normal 0.634393 0.773011 -0.000000
    outer loop
      vertex -0.707107 18.292893 5.000000
      vertex -0.555570 18.168530 0.000000
      vertex -0.707107 18.292893 0.000000
    endloop
  endfacet
  facet normal 0.773011 0.634393 0.000000
    outer loop
      vertex -0.831470 18.444430 5.000000
      vertex -0.707107 18.292893 5.000000
      vertex -0.707107 18.292893 0.000000
    endloop
  endfacet
  facet normal 0.773011 0.634393 0.000000
    outer loop
      vertex -0.831470 18.444430 0.000000
      vertex -0.831470 18.444430 5.000000
      vertex -0.707107 18.292893 0.000000
    endloop
  endfacet
  facet normal 0.881921 0.471397 0.000000
    outer loop
      vertex -0.923880 18.617317 5.000000
      vertex -0.831470 18.444430 5.000000
      vertex -0.831470 18.444430 0.000000
    endloop
  endfacet
  facet normal 0.881921 0.471397 0.000000
    outer loop
      vertex -0.923880 18.617317 0.000000
      vertex -0.923880 18.617317 5.000000
      vertex -0.831470 18.444430 0.000000
    endloop
  endfacet
  facet normal 0.956941 0.290281 0.000000
    outer loop
      vertex -0.980785 18.804910 5.000000
      vertex -0.923880 18.617317 5.000000
      vertex -0.923880 18.617317 0.000000
    endloop
  endfacet
  facet normal 0.956941 0.290281 0.000000
    outer loop
      vertex -0.980785 18.804910 0.000000
      vertex -0.980785 18.804910 5.000000
      vertex -0.923880 18.617317 0.000000
    endloop
  endfacet
endsolid OpenSCAD_Model
