solid OpenSCAD_Model
  facet normal 1.000000 0.000000 0.000000
    outer loop
      vertex 6.175000 23.000000 0.000000
      vertex 6.175000 0.000000 0.000000
      vertex 6.175000 0.000000 -4.339900
    endloop
  endfacet
  facet normal 1.000000 -0.000000 0.000000
    outer loop
      vertex 6.175000 23.000000 -4.339900
      vertex 6.175000 23.000000 0.000000
      vertex 6.175000 0.000000 -4.339900
    endloop
  endfacet
  facet normal 0.000000 -1.000000 0.000000
    outer loop
      vertex 6.175000 0.000000 -4.339900
      vertex 6.175000 0.000000 0.000000
      vertex 2.250000 0.000000 0.000000
    endloop
  endfacet
  facet normal -0.000000 -1.000000 0.000000
    outer loop
      vertex -2.250000 0.000000 -1.500000
      vertex 6.175000 0.000000 -4.339900
      vertex 2.250000 0.000000 -1.500000
    endloop
  endfacet
  facet normal -0.000000 -1.000000 -0.000000
    outer loop
      vertex 2.250000 0.000000 -1.500000
      vertex 6.175000 0.000000 -4.339900
      vertex 2.250000 0.000000 0.000000
    endloop
  endfacet
  facet normal 0.000000 -1.000000 0.000000
    outer loop
      vertex -6.175000 0.000000 -4.339900
      vertex 6.175000 0.000000 -4.339900
      vertex -2.250000 0.000000 -1.500000
    endloop
  endfacet
  facet normal -0.000000 -1.000000 0.000000
    outer loop
      vertex -6.175000 0.000000 -0.000000
      vertex -2.250000 0.000000 -1.500000
      vertex -2.250000 0.000000 -0.000000
    endloop
  endfacet
  facet normal 0.000000 -1.000000 -0.000000
    outer loop
      vertex -6.175000 0.000000 -4.339900
      vertex -2.250000 0.000000 -1.500000
      vertex -6.175000 0.000000 -0.000000
    endloop
  endfacet
  facet normal -0.000000 0.000000 1.000000
    outer loop
      vertex 5.040581 1.760330 0.000000
      vertex 6.175000 0.000000 0.000000
      vertex 6.175000 23.000000 0.000000
    endloop
  endfacet
  facet normal -0.000000 -0.000000 1.000000
    outer loop
      vertex -4.738708 22.000000 -0.000000
      vertex -4.366487 22.084957 -0.000000
      vertex -4.975000 22.000000 -0.000000
    endloop
  endfacet
  facet normal -0.000000 0.000000 1.000000
    outer loop
      vertex 5.040581 1.760330 0.000000
      vertex 5.040581 1.239670 0.000000
      vertex 6.175000 0.000000 0.000000
    endloop
  endfacet
  facet normal -0.000000 -0.000000 1.000000
    outer loop
      vertex -4.366487 0.915043 -0.000000
      vertex -4.738708 1.000000 -0.000000
      vertex -6.175000 0.000000 -0.000000
    endloop
  endfacet
  facet normal -0.000000 0.000000 1.000000
    outer loop
      vertex -4.259955 22.000000 -0.000000
      vertex 4.261292 22.000000 0.000000
      vertex 6.175000 23.000000 0.000000
    endloop
  endfacet
  facet normal -0.000000 -0.000000 1.000000
    outer loop
      vertex -4.366487 0.915043 -0.000000
      vertex -2.250000 0.000000 -0.000000
      vertex -4.259955 1.000000 -0.000000
    endloop
  endfacet
  facet normal -0.000000 0.000000 1.000000
    outer loop
      vertex -4.975000 1.240435 -0.000000
      vertex -5.100000 1.500000 -0.000000
      vertex -4.975000 1.000000 -0.000000
    endloop
  endfacet
  facet normal -0.000000 0.000000 1.000000
    outer loop
      vertex -6.175000 0.000000 -0.000000
      vertex -2.250000 0.000000 -0.000000
      vertex -4.366487 0.915043 -0.000000
    endloop
  endfacet
  facet normal -0.000000 -0.000000 1.000000
    outer loop
      vertex -6.175000 0.000000 -0.000000
      vertex -4.738708 1.000000 -0.000000
      vertex -4.975000 1.000000 -0.000000
    endloop
  endfacet
  facet normal -0.000000 -0.000000 1.000000
    outer loop
      vertex -5.100000 1.500000 -0.000000
      vertex -4.975000 1.759565 -0.000000
      vertex -6.175000 23.000000 -0.000000
    endloop
  endfacet
  facet normal -0.000000 0.000000 1.000000
    outer loop
      vertex -6.175000 0.000000 -0.000000
      vertex -5.100000 1.500000 -0.000000
      vertex -6.175000 23.000000 -0.000000
    endloop
  endfacet
  facet normal -0.000000 0.000000 1.000000
    outer loop
      vertex -6.175000 0.000000 -0.000000
      vertex -4.975000 1.000000 -0.000000
      vertex -5.100000 1.500000 -0.000000
    endloop
  endfacet
  facet normal -0.000000 -0.000000 1.000000
    outer loop
      vertex 5.040581 21.239670 0.000000
      vertex 4.975000 1.812629 0.000000
      vertex 6.175000 23.000000 0.000000
    endloop
  endfacet
  facet normal -0.000000 0.000000 1.000000
    outer loop
      vertex 4.975000 21.187371 0.000000
      vertex 4.975000 1.812629 0.000000
      vertex 5.040581 21.239670 0.000000
    endloop
  endfacet
  facet normal -0.000000 0.000000 1.000000
    outer loop
      vertex -6.175000 23.000000 -0.000000
      vertex -4.975000 21.240435 -0.000000
      vertex -5.100000 21.500000 -0.000000
    endloop
  endfacet
  facet normal -0.000000 -0.000000 1.000000
    outer loop
      vertex 4.633513 0.915043 0.000000
      vertex 4.261292 1.000000 0.000000
      vertex 2.250000 0.000000 0.000000
    endloop
  endfacet
  facet normal -0.000000 -0.000000 1.000000
    outer loop
      vertex -6.175000 23.000000 -0.000000
      vertex -5.100000 21.500000 -0.000000
      vertex -4.975000 21.759565 -0.000000
    endloop
  endfacet
  facet normal -0.000000 0.000000 1.000000
    outer loop
      vertex -6.175000 23.000000 -0.000000
      vertex -4.975000 21.759565 -0.000000
      vertex -4.975000 22.000000 -0.000000
    endloop
  endfacet
  facet normal -0.000000 0.000000 1.000000
    outer loop
      vertex -4.366487 22.084957 -0.000000
      vertex -4.259955 22.000000 -0.000000
      vertex 6.175000 23.000000 0.000000
    endloop
  endfacet
  facet normal -0.000000 -0.000000 1.000000
    outer loop
      vertex -6.175000 23.000000 -0.000000
      vertex -4.366487 22.084957 -0.000000
      vertex 6.175000 23.000000 0.000000
    endloop
  endfacet
  facet normal -0.000000 0.000000 1.000000
    outer loop
      vertex -6.175000 23.000000 -0.000000
      vertex -4.975000 22.000000 -0.000000
      vertex -4.366487 22.084957 -0.000000
    endloop
  endfacet
  facet normal -0.000000 -0.000000 1.000000
    outer loop
      vertex 4.261292 22.000000 0.000000
      vertex 4.633513 22.084957 0.000000
      vertex 6.175000 23.000000 0.000000
    endloop
  endfacet
  facet normal -0.000000 0.000000 1.000000
    outer loop
      vertex 4.633513 22.084957 0.000000
      vertex 4.740045 22.000000 0.000000
      vertex 6.175000 23.000000 0.000000
    endloop
  endfacet
  facet normal -0.000000 -0.000000 1.000000
    outer loop
      vertex 4.740045 22.000000 0.000000
      vertex 4.975000 22.000000 0.000000
      vertex 6.175000 23.000000 0.000000
    endloop
  endfacet
  facet normal -0.000000 0.000000 1.000000
    outer loop
      vertex 4.975000 22.000000 0.000000
      vertex 4.975000 21.812629 0.000000
      vertex 6.175000 23.000000 0.000000
    endloop
  endfacet
  facet normal -0.000000 0.000000 1.000000
    outer loop
      vertex 4.975000 21.812629 0.000000
      vertex 5.040581 21.760330 0.000000
      vertex 6.175000 23.000000 0.000000
    endloop
  endfacet
  facet normal -0.000000 0.000000 1.000000
    outer loop
      vertex 5.040581 21.760330 0.000000
      vertex 5.040581 21.239670 0.000000
      vertex 6.175000 23.000000 0.000000
    endloop
  endfacet
  facet normal -0.000000 0.000000 1.000000
    outer loop
      vertex 4.975000 1.812629 0.000000
      vertex 5.040581 1.760330 0.000000
      vertex 6.175000 23.000000 0.000000
    endloop
  endfacet
  facet normal -0.000000 -0.000000 1.000000
    outer loop
      vertex 4.975000 1.187371 0.000000
      vertex 6.175000 0.000000 0.000000
      vertex 5.040581 1.239670 0.000000
    endloop
  endfacet
  facet normal -0.000000 0.000000 1.000000
    outer loop
      vertex 4.975000 1.000000 0.000000
      vertex 6.175000 0.000000 0.000000
      vertex 4.975000 1.187371 0.000000
    endloop
  endfacet
  facet normal -0.000000 0.000000 1.000000
    outer loop
      vertex 2.250000 0.000000 0.000000
      vertex 6.175000 0.000000 0.000000
      vertex 4.975000 1.000000 0.000000
    endloop
  endfacet
  facet normal -0.000000 -0.000000 1.000000
    outer loop
      vertex 4.633513 0.915043 0.000000
      vertex 4.975000 1.000000 0.000000
      vertex 4.740045 1.000000 0.000000
    endloop
  endfacet
  facet normal -0.000000 -0.000000 1.000000
    outer loop
      vertex 2.250000 0.000000 0.000000
      vertex 4.975000 1.000000 0.000000
      vertex 4.633513 0.915043 0.000000
    endloop
  endfacet
  facet normal -0.000000 0.000000 1.000000
    outer loop
      vertex -2.250000 1.000000 -0.000000
      vertex -4.259955 1.000000 -0.000000
      vertex -2.250000 0.000000 -0.000000
    endloop
  endfacet
  facet normal -0.000000 0.000000 1.000000
    outer loop
      vertex -4.975000 1.759565 -0.000000
      vertex -4.975000 21.240435 -0.000000
      vertex -6.175000 23.000000 -0.000000
    endloop
  endfacet
  facet normal -0.000000 0.000000 1.000000
    outer loop
      vertex 4.261292 1.000000 0.000000
      vertex 2.250000 1.000000 0.000000
      vertex 2.250000 0.000000 0.000000
    endloop
  endfacet
  facet normal 0.000000 1.000000 0.000000
    outer loop
      vertex 6.175000 23.000000 0.000000
      vertex 6.175000 23.000000 -4.339900
      vertex -6.175000 23.000000 -0.000000
    endloop
  endfacet
  facet normal 0.000000 1.000000 0.000000
    outer loop
      vertex -6.175000 23.000000 -0.000000
      vertex 6.175000 23.000000 -4.339900
      vertex -6.175000 23.000000 -4.339900
    endloop
  endfacet
  facet normal 0.000000 0.000000 -1.000000
    outer loop
      vertex 4.308987 20.416711 -4.339900
      vertex 4.633513 20.915043 -4.339900
      vertex 5.040581 21.239670 -4.339900
    endloop
  endfacet
  facet normal -0.000000 0.000000 -1.000000
    outer loop
      vertex 5.040581 1.760330 -4.339900
      vertex 6.175000 23.000000 -4.339900
      vertex 6.175000 0.000000 -4.339900
    endloop
  endfacet
  facet normal -0.000000 0.000000 -1.000000
    outer loop
      vertex 4.975000 2.479926 -4.339900
      vertex 6.175000 23.000000 -4.339900
      vertex 5.040581 1.760330 -4.339900
    endloop
  endfacet
  facet normal -0.000000 -0.000000 -1.000000
    outer loop
      vertex 5.040581 1.239670 -4.339900
      vertex 5.040581 1.760330 -4.339900
      vertex 6.175000 0.000000 -4.339900
    endloop
  endfacet
  facet normal 0.000000 0.000000 -1.000000
    outer loop
      vertex 4.691013 20.416711 -4.339900
      vertex 6.175000 23.000000 -4.339900
      vertex 4.975000 20.520074 -4.339900
    endloop
  endfacet
  facet normal 0.000000 -0.000000 -1.000000
    outer loop
      vertex 3.900000 21.500000 -4.339900
      vertex 3.537801 22.000000 -4.339900
      vertex 4.125906 21.969099 -4.339900
    endloop
  endfacet
  facet normal 0.000000 0.000000 -1.000000
    outer loop
      vertex 5.040581 1.239670 -4.339900
      vertex 6.175000 0.000000 -4.339900
      vertex 4.633513 0.915043 -4.339900
    endloop
  endfacet
  facet normal 0.000000 0.000000 -1.000000
    outer loop
      vertex 3.537801 1.000000 -4.339900
      vertex 3.900000 1.500000 -4.339900
      vertex 4.125906 1.030901 -4.339900
    endloop
  endfacet
  facet normal 0.000000 0.000000 -1.000000
    outer loop
      vertex -6.175000 0.000000 -4.339900
      vertex 4.125906 1.030901 -4.339900
      vertex 6.175000 0.000000 -4.339900
    endloop
  endfacet
  facet normal 0.000000 0.000000 -1.000000
    outer loop
      vertex 4.125906 1.030901 -4.339900
      vertex 4.633513 0.915043 -4.339900
      vertex 6.175000 0.000000 -4.339900
    endloop
  endfacet
  facet normal -0.000000 0.000000 -1.000000
    outer loop
      vertex 5.040581 21.760330 -4.339900
      vertex 6.175000 23.000000 -4.339900
      vertex 5.040581 21.239670 -4.339900
    endloop
  endfacet
  facet normal -0.000000 0.000000 -1.000000
    outer loop
      vertex 4.633513 22.084957 -4.339900
      vertex 6.175000 23.000000 -4.339900
      vertex 5.040581 21.760330 -4.339900
    endloop
  endfacet
  facet normal -0.000000 0.000000 -1.000000
    outer loop
      vertex -3.959419 1.760330 -4.339900
      vertex -3.466338 1.876222 -4.339900
      vertex -3.959419 1.239670 -4.339900
    endloop
  endfacet
  facet normal 0.000000 -0.000000 -1.000000
    outer loop
      vertex -6.175000 23.000000 -4.339900
      vertex 6.175000 23.000000 -4.339900
      vertex 4.633513 22.084957 -4.339900
    endloop
  endfacet
  facet normal 0.000000 -0.000000 -1.000000
    outer loop
      vertex -6.175000 23.000000 -4.339900
      vertex 4.633513 22.084957 -4.339900
      vertex 4.125906 21.969099 -4.339900
    endloop
  endfacet
  facet normal -0.000000 0.000000 -1.000000
    outer loop
      vertex 3.657351 20.792934 -4.339900
      vertex 4.125906 21.030901 -4.339900
      vertex 3.950000 20.547372 -4.339900
    endloop
  endfacet
  facet normal 0.000000 0.000000 -1.000000
    outer loop
      vertex 3.466338 21.876222 -4.339900
      vertex 3.900000 21.500000 -4.339900
      vertex 3.400000 21.500000 -4.339900
    endloop
  endfacet
  facet normal -0.000000 0.000000 -1.000000
    outer loop
      vertex 4.975000 20.520074 -4.339900
      vertex 6.175000 23.000000 -4.339900
      vertex 4.975000 2.479926 -4.339900
    endloop
  endfacet
  facet normal 0.000000 0.000000 -1.000000
    outer loop
      vertex 3.900000 21.500000 -4.339900
      vertex 3.466338 21.876222 -4.339900
      vertex 3.537801 22.000000 -4.339900
    endloop
  endfacet
  facet normal 0.000000 0.000000 -1.000000
    outer loop
      vertex 3.657351 2.207066 -4.339900
      vertex 4.633513 2.084957 -4.339900
      vertex 3.466338 1.876222 -4.339900
    endloop
  endfacet
  facet normal -0.000000 0.000000 -1.000000
    outer loop
      vertex 4.308987 20.416711 -4.339900
      vertex 5.040581 21.239670 -4.339900
      vertex 4.691013 20.416711 -4.339900
    endloop
  endfacet
  facet normal 0.000000 0.000000 -1.000000
    outer loop
      vertex -3.959419 21.239670 -4.339900
      vertex -3.950000 20.547372 -4.339900
      vertex -4.366487 20.915043 -4.339900
    endloop
  endfacet
  facet normal -0.000000 0.000000 -1.000000
    outer loop
      vertex 5.040581 21.239670 -4.339900
      vertex 6.175000 23.000000 -4.339900
      vertex 4.691013 20.416711 -4.339900
    endloop
  endfacet
  facet normal 0.000000 0.000000 -1.000000
    outer loop
      vertex 4.125906 21.030901 -4.339900
      vertex 4.308987 20.416711 -4.339900
      vertex 3.950000 20.547372 -4.339900
    endloop
  endfacet
  facet normal 0.000000 0.000000 -1.000000
    outer loop
      vertex 3.900000 21.500000 -4.339900
      vertex 4.125906 21.030901 -4.339900
      vertex 3.657351 20.792934 -4.339900
    endloop
  endfacet
  facet normal 0.000000 0.000000 -1.000000
    outer loop
      vertex 3.400000 21.500000 -4.339900
      vertex 3.900000 21.500000 -4.339900
      vertex 3.466338 21.123778 -4.339900
    endloop
  endfacet
  facet normal 0.000000 0.000000 -1.000000
    outer loop
      vertex 4.633513 20.915043 -4.339900
      vertex 4.308987 20.416711 -4.339900
      vertex 4.125906 21.030901 -4.339900
    endloop
  endfacet
  facet normal 0.000000 0.000000 -1.000000
    outer loop
      vertex -3.537801 22.000000 -4.339900
      vertex -6.175000 23.000000 -4.339900
      vertex 3.537801 22.000000 -4.339900
    endloop
  endfacet
  facet normal -0.000000 -0.000000 -1.000000
    outer loop
      vertex -6.175000 23.000000 -4.339900
      vertex 4.125906 21.969099 -4.339900
      vertex 3.537801 22.000000 -4.339900
    endloop
  endfacet
  facet normal 0.000000 0.000000 -1.000000
    outer loop
      vertex -3.657351 20.792934 -4.339900
      vertex -3.466338 21.876222 -4.339900
      vertex -3.466338 21.123778 -4.339900
    endloop
  endfacet
  facet normal 0.000000 0.000000 -1.000000
    outer loop
      vertex -4.975000 2.479926 -4.339900
      vertex -6.175000 0.000000 -4.339900
      vertex -4.975000 20.520074 -4.339900
    endloop
  endfacet
  facet normal 0.000000 0.000000 -1.000000
    outer loop
      vertex -3.950000 20.547372 -4.339900
      vertex -3.537801 22.000000 -4.339900
      vertex -3.657351 20.792934 -4.339900
    endloop
  endfacet
  facet normal 0.000000 0.000000 -1.000000
    outer loop
      vertex -3.466338 21.876222 -4.339900
      vertex -3.400000 21.500000 -4.339900
      vertex -3.466338 21.123778 -4.339900
    endloop
  endfacet
  facet normal 0.000000 0.000000 -1.000000
    outer loop
      vertex -3.537801 22.000000 -4.339900
      vertex -3.466338 21.876222 -4.339900
      vertex -3.657351 20.792934 -4.339900
    endloop
  endfacet
  facet normal -0.000000 0.000000 -1.000000
    outer loop
      vertex -3.959419 21.760330 -4.339900
      vertex -3.537801 22.000000 -4.339900
      vertex -3.950000 20.547372 -4.339900
    endloop
  endfacet
  facet normal 0.000000 0.000000 -1.000000
    outer loop
      vertex -4.366487 20.915043 -4.339900
      vertex -3.950000 20.547372 -4.339900
      vertex -4.308987 20.416711 -4.339900
    endloop
  endfacet
  facet normal 0.000000 0.000000 -1.000000
    outer loop
      vertex -4.874094 21.030901 -4.339900
      vertex -4.308987 20.416711 -4.339900
      vertex -4.691013 20.416711 -4.339900
    endloop
  endfacet
  facet normal 0.000000 0.000000 -1.000000
    outer loop
      vertex -6.175000 23.000000 -4.339900
      vertex -4.691013 20.416711 -4.339900
      vertex -4.975000 20.520074 -4.339900
    endloop
  endfacet
  facet normal 0.000000 0.000000 -1.000000
    outer loop
      vertex -6.175000 23.000000 -4.339900
      vertex -4.975000 20.520074 -4.339900
      vertex -6.175000 0.000000 -4.339900
    endloop
  endfacet
  facet normal -0.000000 0.000000 -1.000000
    outer loop
      vertex 3.466338 21.123778 -4.339900
      vertex 3.900000 21.500000 -4.339900
      vertex 3.657351 20.792934 -4.339900
    endloop
  endfacet
  facet normal 0.000000 0.000000 -1.000000
    outer loop
      vertex -4.691013 2.583289 -4.339900
      vertex -6.175000 0.000000 -4.339900
      vertex -4.975000 2.479926 -4.339900
    endloop
  endfacet
  facet normal 0.000000 0.000000 -1.000000
    outer loop
      vertex -3.950000 2.452628 -4.339900
      vertex -4.691013 2.583289 -4.339900
      vertex -4.308987 2.583289 -4.339900
    endloop
  endfacet
  facet normal 0.000000 -0.000000 -1.000000
    outer loop
      vertex 3.537801 1.000000 -4.339900
      vertex -6.175000 0.000000 -4.339900
      vertex -3.537801 1.000000 -4.339900
    endloop
  endfacet
  facet normal 0.000000 0.000000 -1.000000
    outer loop
      vertex 3.466338 1.876222 -4.339900
      vertex 4.633513 2.084957 -4.339900
      vertex 4.125906 1.969099 -4.339900
    endloop
  endfacet
  facet normal 0.000000 -0.000000 -1.000000
    outer loop
      vertex -4.366487 2.084957 -4.339900
      vertex -4.691013 2.583289 -4.339900
      vertex -3.950000 2.452628 -4.339900
    endloop
  endfacet
  facet normal 0.000000 0.000000 -1.000000
    outer loop
      vertex -3.959419 1.760330 -4.339900
      vertex -3.657351 2.207066 -4.339900
      vertex -3.466338 1.876222 -4.339900
    endloop
  endfacet
  facet normal 0.000000 0.000000 -1.000000
    outer loop
      vertex -3.959419 1.239670 -4.339900
      vertex -3.466338 1.876222 -4.339900
      vertex -3.400000 1.500000 -4.339900
    endloop
  endfacet
  facet normal 0.000000 0.000000 -1.000000
    outer loop
      vertex -4.366487 0.915043 -4.339900
      vertex -3.400000 1.500000 -4.339900
      vertex -3.466338 1.123778 -4.339900
    endloop
  endfacet
  facet normal 0.000000 0.000000 -1.000000
    outer loop
      vertex -6.175000 0.000000 -4.339900
      vertex -3.466338 1.123778 -4.339900
      vertex -3.537801 1.000000 -4.339900
    endloop
  endfacet
  facet normal -0.000000 0.000000 -1.000000
    outer loop
      vertex 3.466338 1.123778 -4.339900
      vertex 3.900000 1.500000 -4.339900
      vertex 3.537801 1.000000 -4.339900
    endloop
  endfacet
  facet normal -0.000000 0.000000 -1.000000
    outer loop
      vertex -6.175000 0.000000 -4.339900
      vertex 3.537801 1.000000 -4.339900
      vertex 4.125906 1.030901 -4.339900
    endloop
  endfacet
  facet normal 0.000000 0.000000 -1.000000
    outer loop
      vertex 3.400000 1.500000 -4.339900
      vertex 3.900000 1.500000 -4.339900
      vertex 3.466338 1.123778 -4.339900
    endloop
  endfacet
  facet normal 0.000000 0.000000 -1.000000
    outer loop
      vertex 4.691013 2.583289 -4.339900
      vertex 4.633513 2.084957 -4.339900
      vertex 4.308987 2.583289 -4.339900
    endloop
  endfacet
  facet normal -0.000000 0.000000 -1.000000
    outer loop
      vertex 3.657351 2.207066 -4.339900
      vertex 3.950000 2.452628 -4.339900
      vertex 4.633513 2.084957 -4.339900
    endloop
  endfacet
  facet normal -0.000000 0.000000 -1.000000
    outer loop
      vertex 3.950000 2.452628 -4.339900
      vertex 4.308987 2.583289 -4.339900
      vertex 4.633513 2.084957 -4.339900
    endloop
  endfacet
  facet normal -0.000000 0.000000 -1.000000
    outer loop
      vertex 4.633513 2.084957 -4.339900
      vertex 4.691013 2.583289 -4.339900
      vertex 5.040581 1.760330 -4.339900
    endloop
  endfacet
  facet normal -0.000000 0.000000 -1.000000
    outer loop
      vertex 3.466338 1.876222 -4.339900
      vertex 4.125906 1.969099 -4.339900
      vertex 3.400000 1.500000 -4.339900
    endloop
  endfacet
  facet normal 0.000000 0.000000 -1.000000
    outer loop
      vertex 4.691013 2.583289 -4.339900
      vertex 4.975000 2.479926 -4.339900
      vertex 5.040581 1.760330 -4.339900
    endloop
  endfacet
  facet normal 0.000000 0.000000 -1.000000
    outer loop
      vertex -4.366487 2.084957 -4.339900
      vertex -3.950000 2.452628 -4.339900
      vertex -3.657351 2.207066 -4.339900
    endloop
  endfacet
  facet normal 0.000000 0.000000 -1.000000
    outer loop
      vertex -4.874094 1.969099 -4.339900
      vertex -4.691013 2.583289 -4.339900
      vertex -4.366487 2.084957 -4.339900
    endloop
  endfacet
  facet normal 0.000000 0.000000 -1.000000
    outer loop
      vertex -4.874094 1.030901 -4.339900
      vertex -6.175000 0.000000 -4.339900
      vertex -5.100000 1.500000 -4.339900
    endloop
  endfacet
  facet normal 0.000000 0.000000 -1.000000
    outer loop
      vertex -6.175000 0.000000 -4.339900
      vertex -4.691013 2.583289 -4.339900
      vertex -4.874094 1.969099 -4.339900
    endloop
  endfacet
  facet normal 0.000000 0.000000 -1.000000
    outer loop
      vertex -6.175000 0.000000 -4.339900
      vertex -4.874094 1.969099 -4.339900
      vertex -5.100000 1.500000 -4.339900
    endloop
  endfacet
  facet normal 0.000000 0.000000 -1.000000
    outer loop
      vertex -4.366487 0.915043 -4.339900
      vertex -6.175000 0.000000 -4.339900
      vertex -4.874094 1.030901 -4.339900
    endloop
  endfacet
  facet normal -0.000000 0.000000 -1.000000
    outer loop
      vertex -4.366487 2.084957 -4.339900
      vertex -3.657351 2.207066 -4.339900
      vertex -3.959419 1.760330 -4.339900
    endloop
  endfacet
  facet normal 0.000000 -0.000000 -1.000000
    outer loop
      vertex -4.874094 21.969099 -4.339900
      vertex -6.175000 23.000000 -4.339900
      vertex -4.366487 22.084957 -4.339900
    endloop
  endfacet
  facet normal 0.000000 0.000000 -1.000000
    outer loop
      vertex -6.175000 0.000000 -4.339900
      vertex -4.366487 0.915043 -4.339900
      vertex -3.466338 1.123778 -4.339900
    endloop
  endfacet
  facet normal -0.000000 0.000000 -1.000000
    outer loop
      vertex -3.959419 1.239670 -4.339900
      vertex -3.400000 1.500000 -4.339900
      vertex -4.366487 0.915043 -4.339900
    endloop
  endfacet
  facet normal 0.000000 0.000000 -1.000000
    outer loop
      vertex -4.366487 22.084957 -4.339900
      vertex -3.537801 22.000000 -4.339900
      vertex -3.959419 21.760330 -4.339900
    endloop
  endfacet
  facet normal -0.000000 -0.000000 -1.000000
    outer loop
      vertex -3.959419 21.239670 -4.339900
      vertex -3.959419 21.760330 -4.339900
      vertex -3.950000 20.547372 -4.339900
    endloop
  endfacet
  facet normal 0.000000 0.000000 -1.000000
    outer loop
      vertex -6.175000 23.000000 -4.339900
      vertex -3.537801 22.000000 -4.339900
      vertex -4.366487 22.084957 -4.339900
    endloop
  endfacet
  facet normal 0.000000 -0.000000 -1.000000
    outer loop
      vertex -5.100000 21.500000 -4.339900
      vertex -6.175000 23.000000 -4.339900
      vertex -4.874094 21.969099 -4.339900
    endloop
  endfacet
  facet normal 0.000000 0.000000 -1.000000
    outer loop
      vertex -4.366487 20.915043 -4.339900
      vertex -4.308987 20.416711 -4.339900
      vertex -4.874094 21.030901 -4.339900
    endloop
  endfacet
  facet normal 0.000000 0.000000 -1.000000
    outer loop
      vertex -6.175000 23.000000 -4.339900
      vertex -5.100000 21.500000 -4.339900
      vertex -4.691013 20.416711 -4.339900
    endloop
  endfacet
  facet normal 0.000000 0.000000 -1.000000
    outer loop
      vertex -5.100000 21.500000 -4.339900
      vertex -4.874094 21.030901 -4.339900
      vertex -4.691013 20.416711 -4.339900
    endloop
  endfacet
  facet normal 0.000000 -0.000000 -1.000000
    outer loop
      vertex 3.900000 1.500000 -4.339900
      vertex 3.400000 1.500000 -4.339900
      vertex 4.125906 1.969099 -4.339900
    endloop
  endfacet
  facet normal -1.000000 -0.000000 -0.000000
    outer loop
      vertex -6.175000 0.000000 -0.000000
      vertex -6.175000 23.000000 -0.000000
      vertex -6.175000 0.000000 -4.339900
    endloop
  endfacet
  facet normal -1.000000 -0.000000 -0.000000
    outer loop
      vertex -6.175000 0.000000 -4.339900
      vertex -6.175000 23.000000 -0.000000
      vertex -6.175000 23.000000 -4.339900
    endloop
  endfacet
  facet normal 1.000000 0.000000 0.000000
    outer loop
      vertex -2.250000 0.000000 -1.500000
      vertex -2.250000 1.000000 -1.500000
      vertex -2.250000 1.000000 -0.000000
    endloop
  endfacet
  facet normal 1.000000 0.000000 0.000000
    outer loop
      vertex -2.250000 0.000000 -0.000000
      vertex -2.250000 0.000000 -1.500000
      vertex -2.250000 1.000000 -0.000000
    endloop
  endfacet
  facet normal -0.000000 0.000000 1.000000
    outer loop
      vertex 2.250000 1.000000 -1.500000
      vertex -2.250000 1.000000 -1.500000
      vertex -2.250000 0.000000 -1.500000
    endloop
  endfacet
  facet normal -0.000000 0.000000 1.000000
    outer loop
      vertex 2.250000 0.000000 -1.500000
      vertex 2.250000 1.000000 -1.500000
      vertex -2.250000 0.000000 -1.500000
    endloop
  endfacet
  facet normal -1.000000 0.000000 0.000000
    outer loop
      vertex 2.250000 1.000000 -1.500000
      vertex 2.250000 0.000000 -1.500000
      vertex 2.250000 1.000000 0.000000
    endloop
  endfacet
  facet normal -1.000000 0.000000 0.000000
    outer loop
      vertex 2.250000 1.000000 0.000000
      vertex 2.250000 0.000000 -1.500000
      vertex 2.250000 0.000000 0.000000
    endloop
  endfacet
  facet normal 0.000000 1.000000 -0.000000
    outer loop
      vertex 3.537801 1.000000 -1.400000
      vertex 3.537801 1.000000 -4.339900
      vertex -3.537801 1.000000 -4.339900
    endloop
  endfacet
  facet normal -0.000000 1.000000 0.000000
    outer loop
      vertex -2.250000 1.000000 -1.500000
      vertex -3.537801 1.000000 -4.339900
      vertex -3.537801 1.000000 -1.400000
    endloop
  endfacet
  facet normal -0.000000 1.000000 0.000000
    outer loop
      vertex -3.537801 1.000000 -1.400000
      vertex -4.259955 1.000000 -1.400000
      vertex -4.259955 1.000000 -0.000000
    endloop
  endfacet
  facet normal 0.000000 1.000000 -0.000000
    outer loop
      vertex 2.250000 1.000000 0.000000
      vertex 3.537801 1.000000 -1.400000
      vertex 2.250000 1.000000 -1.500000
    endloop
  endfacet
  facet normal 0.000000 1.000000 0.000000
    outer loop
      vertex 2.250000 1.000000 -1.500000
      vertex -3.537801 1.000000 -4.339900
      vertex -2.250000 1.000000 -1.500000
    endloop
  endfacet
  facet normal 0.000000 1.000000 0.000000
    outer loop
      vertex 2.250000 1.000000 0.000000
      vertex 4.261292 1.000000 -1.400000
      vertex 3.537801 1.000000 -1.400000
    endloop
  endfacet
  facet normal 0.000000 1.000000 0.000000
    outer loop
      vertex 3.537801 1.000000 -1.400000
      vertex -3.537801 1.000000 -4.339900
      vertex 2.250000 1.000000 -1.500000
    endloop
  endfacet
  facet normal 0.000000 1.000000 0.000000
    outer loop
      vertex 2.250000 1.000000 0.000000
      vertex 4.261292 1.000000 0.000000
      vertex 4.261292 1.000000 -1.400000
    endloop
  endfacet
  facet normal 0.000000 1.000000 0.000000
    outer loop
      vertex -2.250000 1.000000 -1.500000
      vertex -3.537801 1.000000 -1.400000
      vertex -4.259955 1.000000 -0.000000
    endloop
  endfacet
  facet normal 0.000000 1.000000 0.000000
    outer loop
      vertex -2.250000 1.000000 -1.500000
      vertex -4.259955 1.000000 -0.000000
      vertex -2.250000 1.000000 -0.000000
    endloop
  endfacet
  facet normal 0.222521 0.974928 0.000000
    outer loop
      vertex 4.125906 1.030901 -4.339900
      vertex 4.125906 1.030901 -1.400000
      vertex 4.633513 0.915043 -4.339900
    endloop
  endfacet
  facet normal 0.222521 0.974928 -0.000000
    outer loop
      vertex 4.633513 0.915043 -4.339900
      vertex 4.125906 1.030901 -1.400000
      vertex 4.261292 1.000000 -1.400000
    endloop
  endfacet
  facet normal 0.222521 0.974928 0.000000
    outer loop
      vertex 4.633513 0.915043 -4.339900
      vertex 4.261292 1.000000 -1.400000
      vertex 4.261292 1.000000 0.000000
    endloop
  endfacet
  facet normal 0.222521 0.974928 0.000000
    outer loop
      vertex 4.633513 0.915043 -4.339900
      vertex 4.261292 1.000000 0.000000
      vertex 4.633513 0.915043 0.000000
    endloop
  endfacet
  facet normal -0.623491 0.781830 -0.000000
    outer loop
      vertex 4.975000 1.187371 -1.400000
      vertex 5.040581 1.239670 -4.339900
      vertex 4.740045 1.000000 -1.400000
    endloop
  endfacet
  facet normal -0.623491 0.781830 0.000000
    outer loop
      vertex 4.633513 0.915043 -4.339900
      vertex 4.633513 0.915043 0.000000
      vertex 4.740045 1.000000 -1.400000
    endloop
  endfacet
  facet normal -0.623491 0.781830 -0.000000
    outer loop
      vertex 4.633513 0.915043 -4.339900
      vertex 4.740045 1.000000 -1.400000
      vertex 5.040581 1.239670 -4.339900
    endloop
  endfacet
  facet normal -0.623491 0.781830 0.000000
    outer loop
      vertex 5.040581 1.239670 -4.339900
      vertex 4.975000 1.187371 -1.400000
      vertex 4.975000 1.187371 0.000000
    endloop
  endfacet
  facet normal -0.623491 0.781830 -0.000000
    outer loop
      vertex 5.040581 1.239670 -4.339900
      vertex 4.975000 1.187371 0.000000
      vertex 5.040581 1.239670 0.000000
    endloop
  endfacet
  facet normal -0.623491 0.781830 0.000000
    outer loop
      vertex 4.740045 1.000000 -1.400000
      vertex 4.633513 0.915043 0.000000
      vertex 4.740045 1.000000 0.000000
    endloop
  endfacet
  facet normal 0.000000 1.000000 0.000000
    outer loop
      vertex 4.740045 1.000000 -1.400000
      vertex 4.740045 1.000000 0.000000
      vertex 4.975000 1.000000 -1.400000
    endloop
  endfacet
  facet normal 0.000000 1.000000 0.000000
    outer loop
      vertex 4.975000 1.000000 -1.400000
      vertex 4.740045 1.000000 0.000000
      vertex 4.975000 1.000000 0.000000
    endloop
  endfacet
  facet normal -1.000000 0.000000 0.000000
    outer loop
      vertex 4.975000 1.187371 -1.400000
      vertex 4.975000 1.000000 -1.400000
      vertex 4.975000 1.187371 0.000000
    endloop
  endfacet
  facet normal -1.000000 0.000000 0.000000
    outer loop
      vertex 4.975000 1.187371 0.000000
      vertex 4.975000 1.000000 -1.400000
      vertex 4.975000 1.000000 0.000000
    endloop
  endfacet
  facet normal -1.000000 0.000000 -0.000000
    outer loop
      vertex 5.040581 1.760330 -4.339900
      vertex 5.040581 1.239670 -4.339900
      vertex 5.040581 1.760330 0.000000
    endloop
  endfacet
  facet normal -1.000000 0.000000 -0.000000
    outer loop
      vertex 5.040581 1.760330 0.000000
      vertex 5.040581 1.239670 -4.339900
      vertex 5.040581 1.239670 0.000000
    endloop
  endfacet
  facet normal -0.623491 -0.781830 -0.000000
    outer loop
      vertex 4.633513 2.084957 -4.339900
      vertex 4.975000 1.812629 -1.400000
      vertex 4.633513 2.084957 -1.400000
    endloop
  endfacet
  facet normal -0.623491 -0.781830 -0.000000
    outer loop
      vertex 5.040581 1.760330 -4.339900
      vertex 4.975000 1.812629 -1.400000
      vertex 4.633513 2.084957 -4.339900
    endloop
  endfacet
  facet normal -0.623491 -0.781830 0.000000
    outer loop
      vertex 4.975000 1.812629 0.000000
      vertex 4.975000 1.812629 -1.400000
      vertex 5.040581 1.760330 -4.339900
    endloop
  endfacet
  facet normal -0.623491 -0.781830 -0.000000
    outer loop
      vertex 5.040581 1.760330 0.000000
      vertex 4.975000 1.812629 0.000000
      vertex 5.040581 1.760330 -4.339900
    endloop
  endfacet
  facet normal -1.000000 0.000000 0.000000
    outer loop
      vertex 4.975000 21.187371 -2.600000
      vertex 4.975000 20.520074 -2.600000
      vertex 4.975000 21.187371 0.000000
    endloop
  endfacet
  facet normal -1.000000 -0.000000 0.000000
    outer loop
      vertex 4.975000 2.479926 -4.339900
      vertex 4.975000 20.520074 -2.600000
      vertex 4.975000 20.520074 -4.339900
    endloop
  endfacet
  facet normal -1.000000 0.000000 0.000000
    outer loop
      vertex 4.975000 21.187371 0.000000
      vertex 4.975000 20.520074 -2.600000
      vertex 4.975000 2.479926 -4.339900
    endloop
  endfacet
  facet normal -1.000000 0.000000 0.000000
    outer loop
      vertex 4.975000 21.187371 0.000000
      vertex 4.975000 2.479926 -4.339900
      vertex 4.975000 2.479926 -1.400000
    endloop
  endfacet
  facet normal -1.000000 0.000000 0.000000
    outer loop
      vertex 4.975000 21.187371 0.000000
      vertex 4.975000 2.479926 -1.400000
      vertex 4.975000 1.812629 -1.400000
    endloop
  endfacet
  facet normal -1.000000 0.000000 0.000000
    outer loop
      vertex 4.975000 21.187371 0.000000
      vertex 4.975000 1.812629 -1.400000
      vertex 4.975000 1.812629 0.000000
    endloop
  endfacet
  facet normal -0.623491 0.781830 0.000000
    outer loop
      vertex 4.633513 20.915043 -4.339900
      vertex 4.633513 20.915043 -2.600000
      vertex 5.040581 21.239670 -4.339900
    endloop
  endfacet
  facet normal -0.623491 0.781830 -0.000000
    outer loop
      vertex 5.040581 21.239670 -4.339900
      vertex 4.633513 20.915043 -2.600000
      vertex 4.975000 21.187371 -2.600000
    endloop
  endfacet
  facet normal -0.623491 0.781830 0.000000
    outer loop
      vertex 5.040581 21.239670 -4.339900
      vertex 4.975000 21.187371 -2.600000
      vertex 4.975000 21.187371 0.000000
    endloop
  endfacet
  facet normal -0.623491 0.781830 -0.000000
    outer loop
      vertex 5.040581 21.239670 -4.339900
      vertex 4.975000 21.187371 0.000000
      vertex 5.040581 21.239670 0.000000
    endloop
  endfacet
  facet normal -1.000000 0.000000 -0.000000
    outer loop
      vertex 5.040581 21.760330 -4.339900
      vertex 5.040581 21.239670 -4.339900
      vertex 5.040581 21.760330 0.000000
    endloop
  endfacet
  facet normal -1.000000 0.000000 -0.000000
    outer loop
      vertex 5.040581 21.760330 0.000000
      vertex 5.040581 21.239670 -4.339900
      vertex 5.040581 21.239670 0.000000
    endloop
  endfacet
  facet normal -0.623491 -0.781830 0.000000
    outer loop
      vertex 4.633513 22.084957 -4.339900
      vertex 4.975000 21.812629 -2.600000
      vertex 4.740045 22.000000 -2.600000
    endloop
  endfacet
  facet normal -0.623491 -0.781830 0.000000
    outer loop
      vertex 4.975000 21.812629 0.000000
      vertex 4.975000 21.812629 -2.600000
      vertex 5.040581 21.760330 -4.339900
    endloop
  endfacet
  facet normal -0.623491 -0.781830 0.000000
    outer loop
      vertex 4.740045 22.000000 0.000000
      vertex 4.633513 22.084957 0.000000
      vertex 4.740045 22.000000 -2.600000
    endloop
  endfacet
  facet normal -0.623491 -0.781830 0.000000
    outer loop
      vertex 4.633513 22.084957 0.000000
      vertex 4.633513 22.084957 -4.339900
      vertex 4.740045 22.000000 -2.600000
    endloop
  endfacet
  facet normal -0.623491 -0.781830 -0.000000
    outer loop
      vertex 4.633513 22.084957 -4.339900
      vertex 5.040581 21.760330 -4.339900
      vertex 4.975000 21.812629 -2.600000
    endloop
  endfacet
  facet normal -0.623491 -0.781830 -0.000000
    outer loop
      vertex 5.040581 21.760330 -4.339900
      vertex 5.040581 21.760330 0.000000
      vertex 4.975000 21.812629 0.000000
    endloop
  endfacet
  facet normal -1.000000 0.000000 0.000000
    outer loop
      vertex 4.975000 22.000000 -2.600000
      vertex 4.975000 21.812629 -2.600000
      vertex 4.975000 22.000000 0.000000
    endloop
  endfacet
  facet normal -1.000000 0.000000 0.000000
    outer loop
      vertex 4.975000 22.000000 0.000000
      vertex 4.975000 21.812629 -2.600000
      vertex 4.975000 21.812629 0.000000
    endloop
  endfacet
  facet normal 0.000000 -1.000000 0.000000
    outer loop
      vertex 4.740045 22.000000 0.000000
      vertex 4.740045 22.000000 -2.600000
      vertex 4.975000 22.000000 -2.600000
    endloop
  endfacet
  facet normal 0.000000 -1.000000 0.000000
    outer loop
      vertex 4.975000 22.000000 0.000000
      vertex 4.740045 22.000000 0.000000
      vertex 4.975000 22.000000 -2.600000
    endloop
  endfacet
  facet normal 0.222521 -0.974928 0.000000
    outer loop
      vertex 4.125906 21.969099 -4.339900
      vertex 4.261292 22.000000 -2.600000
      vertex 4.125906 21.969099 -2.600000
    endloop
  endfacet
  facet normal 0.222521 -0.974928 0.000000
    outer loop
      vertex 4.633513 22.084957 -4.339900
      vertex 4.261292 22.000000 -2.600000
      vertex 4.125906 21.969099 -4.339900
    endloop
  endfacet
  facet normal 0.222521 -0.974928 0.000000
    outer loop
      vertex 4.261292 22.000000 0.000000
      vertex 4.261292 22.000000 -2.600000
      vertex 4.633513 22.084957 -4.339900
    endloop
  endfacet
  facet normal 0.222521 -0.974928 0.000000
    outer loop
      vertex 4.633513 22.084957 0.000000
      vertex 4.261292 22.000000 0.000000
      vertex 4.633513 22.084957 -4.339900
    endloop
  endfacet
  facet normal 0.000000 -1.000000 -0.000000
    outer loop
      vertex 3.537801 22.000000 -2.600000
      vertex 4.261292 22.000000 -2.600000
      vertex -4.259955 22.000000 -0.000000
    endloop
  endfacet
  facet normal 0.000000 -1.000000 0.000000
    outer loop
      vertex -4.259955 22.000000 -0.000000
      vertex -4.259955 22.000000 -2.600000
      vertex -3.537801 22.000000 -2.600000
    endloop
  endfacet
  facet normal 0.000000 -1.000000 0.000000
    outer loop
      vertex 3.537801 22.000000 -4.339900
      vertex -4.259955 22.000000 -0.000000
      vertex -3.537801 22.000000 -2.600000
    endloop
  endfacet
  facet normal 0.000000 -1.000000 -0.000000
    outer loop
      vertex -3.537801 22.000000 -4.339900
      vertex 3.537801 22.000000 -4.339900
      vertex -3.537801 22.000000 -2.600000
    endloop
  endfacet
  facet normal 0.000000 -1.000000 0.000000
    outer loop
      vertex 3.537801 22.000000 -4.339900
      vertex 3.537801 22.000000 -2.600000
      vertex -4.259955 22.000000 -0.000000
    endloop
  endfacet
  facet normal 0.000000 -1.000000 0.000000
    outer loop
      vertex 4.261292 22.000000 -2.600000
      vertex 4.261292 22.000000 0.000000
      vertex -4.259955 22.000000 -0.000000
    endloop
  endfacet
  facet normal -0.623491 -0.781830 -0.000000
    outer loop
      vertex -4.259955 22.000000 -2.600000
      vertex -4.259955 22.000000 -0.000000
      vertex -4.366487 22.084957 -0.000000
    endloop
  endfacet
  facet normal -0.623491 -0.781830 0.000000
    outer loop
      vertex -3.959419 21.760330 -4.339900
      vertex -4.259955 22.000000 -2.600000
      vertex -4.366487 22.084957 -4.339900
    endloop
  endfacet
  facet normal -0.623491 -0.781830 -0.000000
    outer loop
      vertex -4.366487 22.084957 -4.339900
      vertex -4.259955 22.000000 -2.600000
      vertex -4.366487 22.084957 -0.000000
    endloop
  endfacet
  facet normal -0.623491 -0.781830 -0.000000
    outer loop
      vertex -3.959419 21.760330 -2.600000
      vertex -4.259955 22.000000 -2.600000
      vertex -3.959419 21.760330 -4.339900
    endloop
  endfacet
  facet normal 0.222521 -0.974928 0.000000
    outer loop
      vertex -4.874094 21.969099 -4.339900
      vertex -4.738708 22.000000 -2.600000
      vertex -4.874094 21.969099 -2.600000
    endloop
  endfacet
  facet normal 0.222521 -0.974928 0.000000
    outer loop
      vertex -4.366487 22.084957 -4.339900
      vertex -4.738708 22.000000 -2.600000
      vertex -4.874094 21.969099 -4.339900
    endloop
  endfacet
  facet normal 0.222521 -0.974928 0.000000
    outer loop
      vertex -4.738708 22.000000 -0.000000
      vertex -4.738708 22.000000 -2.600000
      vertex -4.366487 22.084957 -4.339900
    endloop
  endfacet
  facet normal 0.222521 -0.974928 0.000000
    outer loop
      vertex -4.366487 22.084957 -0.000000
      vertex -4.738708 22.000000 -0.000000
      vertex -4.366487 22.084957 -4.339900
    endloop
  endfacet
  facet normal 0.000000 -1.000000 0.000000
    outer loop
      vertex -4.975000 22.000000 -0.000000
      vertex -4.975000 22.000000 -2.600000
      vertex -4.738708 22.000000 -2.600000
    endloop
  endfacet
  facet normal 0.000000 -1.000000 0.000000
    outer loop
      vertex -4.738708 22.000000 -0.000000
      vertex -4.975000 22.000000 -0.000000
      vertex -4.738708 22.000000 -2.600000
    endloop
  endfacet
  facet normal 1.000000 0.000000 0.000000
    outer loop
      vertex -4.975000 21.759565 -2.600000
      vertex -4.975000 22.000000 -2.600000
      vertex -4.975000 22.000000 -0.000000
    endloop
  endfacet
  facet normal 1.000000 0.000000 0.000000
    outer loop
      vertex -4.975000 21.759565 -0.000000
      vertex -4.975000 21.759565 -2.600000
      vertex -4.975000 22.000000 -0.000000
    endloop
  endfacet
  facet normal 0.900969 -0.433883 0.000000
    outer loop
      vertex -4.975000 21.759565 -2.600000
      vertex -4.975000 21.759565 -0.000000
      vertex -5.100000 21.500000 -0.000000
    endloop
  endfacet
  facet normal 0.900969 -0.433883 -0.000000
    outer loop
      vertex -4.874094 21.969099 -4.339900
      vertex -4.975000 21.759565 -2.600000
      vertex -5.100000 21.500000 -4.339900
    endloop
  endfacet
  facet normal 0.900969 -0.433883 0.000000
    outer loop
      vertex -5.100000 21.500000 -4.339900
      vertex -4.975000 21.759565 -2.600000
      vertex -5.100000 21.500000 -0.000000
    endloop
  endfacet
  facet normal 0.900969 -0.433883 0.000000
    outer loop
      vertex -4.874094 21.969099 -2.600000
      vertex -4.975000 21.759565 -2.600000
      vertex -4.874094 21.969099 -4.339900
    endloop
  endfacet
  facet normal 0.900969 0.433883 0.000000
    outer loop
      vertex -4.975000 21.240435 -2.600000
      vertex -5.100000 21.500000 -4.339900
      vertex -5.100000 21.500000 -0.000000
    endloop
  endfacet
  facet normal 0.900969 0.433883 0.000000
    outer loop
      vertex -4.975000 21.240435 -2.600000
      vertex -4.874094 21.030901 -2.600000
      vertex -4.874094 21.030901 -4.339900
    endloop
  endfacet
  facet normal 0.900969 0.433883 -0.000000
    outer loop
      vertex -4.874094 21.030901 -4.339900
      vertex -5.100000 21.500000 -4.339900
      vertex -4.975000 21.240435 -2.600000
    endloop
  endfacet
  facet normal 0.900969 0.433883 0.000000
    outer loop
      vertex -4.975000 21.240435 -0.000000
      vertex -4.975000 21.240435 -2.600000
      vertex -5.100000 21.500000 -0.000000
    endloop
  endfacet
  facet normal 1.000000 -0.000000 0.000000
    outer loop
      vertex -4.975000 20.520074 -4.339900
      vertex -4.975000 2.479926 -1.400000
      vertex -4.975000 2.479926 -4.339900
    endloop
  endfacet
  facet normal 1.000000 -0.000000 0.000000
    outer loop
      vertex -4.975000 20.520074 -2.600000
      vertex -4.975000 2.479926 -1.400000
      vertex -4.975000 20.520074 -4.339900
    endloop
  endfacet
  facet normal 1.000000 0.000000 0.000000
    outer loop
      vertex -4.975000 1.759565 -1.400000
      vertex -4.975000 2.479926 -1.400000
      vertex -4.975000 21.240435 -0.000000
    endloop
  endfacet
  facet normal 1.000000 -0.000000 0.000000
    outer loop
      vertex -4.975000 21.240435 -2.600000
      vertex -4.975000 2.479926 -1.400000
      vertex -4.975000 20.520074 -2.600000
    endloop
  endfacet
  facet normal 1.000000 0.000000 0.000000
    outer loop
      vertex -4.975000 21.240435 -0.000000
      vertex -4.975000 2.479926 -1.400000
      vertex -4.975000 21.240435 -2.600000
    endloop
  endfacet
  facet normal 1.000000 0.000000 0.000000
    outer loop
      vertex -4.975000 1.759565 -0.000000
      vertex -4.975000 1.759565 -1.400000
      vertex -4.975000 21.240435 -0.000000
    endloop
  endfacet
  facet normal 0.900969 -0.433883 0.000000
    outer loop
      vertex -4.975000 1.759565 -1.400000
      vertex -4.975000 1.759565 -0.000000
      vertex -5.100000 1.500000 -0.000000
    endloop
  endfacet
  facet normal 0.900969 -0.433883 0.000000
    outer loop
      vertex -4.874094 1.969099 -4.339900
      vertex -4.975000 1.759565 -1.400000
      vertex -5.100000 1.500000 -4.339900
    endloop
  endfacet
  facet normal 0.900969 -0.433883 0.000000
    outer loop
      vertex -5.100000 1.500000 -4.339900
      vertex -4.975000 1.759565 -1.400000
      vertex -5.100000 1.500000 -0.000000
    endloop
  endfacet
  facet normal 0.900969 -0.433883 0.000000
    outer loop
      vertex -4.874094 1.969099 -1.400000
      vertex -4.975000 1.759565 -1.400000
      vertex -4.874094 1.969099 -4.339900
    endloop
  endfacet
  facet normal 0.900969 0.433883 0.000000
    outer loop
      vertex -4.874094 1.030901 -4.339900
      vertex -5.100000 1.500000 -4.339900
      vertex -5.100000 1.500000 -0.000000
    endloop
  endfacet
  facet normal 0.900969 0.433883 0.000000
    outer loop
      vertex -4.975000 1.240435 -1.400000
      vertex -4.874094 1.030901 -4.339900
      vertex -5.100000 1.500000 -0.000000
    endloop
  endfacet
  facet normal 0.900969 0.433883 0.000000
    outer loop
      vertex -4.975000 1.240435 -0.000000
      vertex -4.975000 1.240435 -1.400000
      vertex -5.100000 1.500000 -0.000000
    endloop
  endfacet
  facet normal 0.900969 0.433883 0.000000
    outer loop
      vertex -4.975000 1.240435 -1.400000
      vertex -4.874094 1.030901 -1.400000
      vertex -4.874094 1.030901 -4.339900
    endloop
  endfacet
  facet normal 1.000000 0.000000 0.000000
    outer loop
      vertex -4.975000 1.000000 -1.400000
      vertex -4.975000 1.240435 -1.400000
      vertex -4.975000 1.240435 -0.000000
    endloop
  endfacet
  facet normal 1.000000 0.000000 0.000000
    outer loop
      vertex -4.975000 1.000000 -0.000000
      vertex -4.975000 1.000000 -1.400000
      vertex -4.975000 1.240435 -0.000000
    endloop
  endfacet
  facet normal 0.000000 1.000000 0.000000
    outer loop
      vertex -4.975000 1.000000 -1.400000
      vertex -4.975000 1.000000 -0.000000
      vertex -4.738708 1.000000 -1.400000
    endloop
  endfacet
  facet normal 0.000000 1.000000 0.000000
    outer loop
      vertex -4.738708 1.000000 -1.400000
      vertex -4.975000 1.000000 -0.000000
      vertex -4.738708 1.000000 -0.000000
    endloop
  endfacet
  facet normal 0.222521 0.974928 0.000000
    outer loop
      vertex -4.874094 1.030901 -4.339900
      vertex -4.874094 1.030901 -1.400000
      vertex -4.366487 0.915043 -4.339900
    endloop
  endfacet
  facet normal 0.222521 0.974928 -0.000000
    outer loop
      vertex -4.366487 0.915043 -4.339900
      vertex -4.874094 1.030901 -1.400000
      vertex -4.738708 1.000000 -1.400000
    endloop
  endfacet
  facet normal 0.222521 0.974928 0.000000
    outer loop
      vertex -4.366487 0.915043 -4.339900
      vertex -4.738708 1.000000 -1.400000
      vertex -4.738708 1.000000 -0.000000
    endloop
  endfacet
  facet normal 0.222521 0.974928 0.000000
    outer loop
      vertex -4.366487 0.915043 -4.339900
      vertex -4.738708 1.000000 -0.000000
      vertex -4.366487 0.915043 -0.000000
    endloop
  endfacet
  facet normal -0.623491 0.781830 -0.000000
    outer loop
      vertex -3.959419 1.239670 -1.400000
      vertex -3.959419 1.239670 -4.339900
      vertex -4.259955 1.000000 -1.400000
    endloop
  endfacet
  facet normal -0.623491 0.781830 0.000000
    outer loop
      vertex -4.366487 0.915043 -4.339900
      vertex -4.366487 0.915043 -0.000000
      vertex -4.259955 1.000000 -1.400000
    endloop
  endfacet
  facet normal -0.623491 0.781830 -0.000000
    outer loop
      vertex -4.366487 0.915043 -4.339900
      vertex -4.259955 1.000000 -1.400000
      vertex -3.959419 1.239670 -4.339900
    endloop
  endfacet
  facet normal -0.623491 0.781830 0.000000
    outer loop
      vertex -4.259955 1.000000 -1.400000
      vertex -4.366487 0.915043 -0.000000
      vertex -4.259955 1.000000 -0.000000
    endloop
  endfacet
  facet normal 0.900969 0.433883 0.000000
    outer loop
      vertex 4.125906 1.030901 -4.339900
      vertex 3.900000 1.500000 -4.339900
      vertex 3.900000 1.500000 -1.400000
    endloop
  endfacet
  facet normal 0.900969 0.433883 0.000000
    outer loop
      vertex 4.125906 1.030901 -1.400000
      vertex 4.125906 1.030901 -4.339900
      vertex 3.900000 1.500000 -1.400000
    endloop
  endfacet
  facet normal 0.900969 -0.433883 0.000000
    outer loop
      vertex 3.900000 1.500000 -1.400000
      vertex 3.900000 1.500000 -4.339900
      vertex 4.125906 1.969099 -4.339900
    endloop
  endfacet
  facet normal 0.900969 -0.433883 0.000000
    outer loop
      vertex 4.125906 1.969099 -1.400000
      vertex 3.900000 1.500000 -1.400000
      vertex 4.125906 1.969099 -4.339900
    endloop
  endfacet
  facet normal 0.222521 -0.974928 0.000000
    outer loop
      vertex 4.125906 1.969099 -1.400000
      vertex 4.125906 1.969099 -4.339900
      vertex 4.633513 2.084957 -4.339900
    endloop
  endfacet
  facet normal 0.222521 -0.974928 0.000000
    outer loop
      vertex 4.633513 2.084957 -1.400000
      vertex 4.125906 1.969099 -1.400000
      vertex 4.633513 2.084957 -4.339900
    endloop
  endfacet
  facet normal 0.222521 0.974928 0.000000
    outer loop
      vertex 4.125906 21.030901 -4.339900
      vertex 4.125906 21.030901 -2.600000
      vertex 4.633513 20.915043 -4.339900
    endloop
  endfacet
  facet normal 0.222521 0.974928 0.000000
    outer loop
      vertex 4.633513 20.915043 -4.339900
      vertex 4.125906 21.030901 -2.600000
      vertex 4.633513 20.915043 -2.600000
    endloop
  endfacet
  facet normal 0.900969 0.433883 0.000000
    outer loop
      vertex 4.125906 21.030901 -4.339900
      vertex 3.900000 21.500000 -4.339900
      vertex 3.900000 21.500000 -2.600000
    endloop
  endfacet
  facet normal 0.900969 0.433883 0.000000
    outer loop
      vertex 4.125906 21.030901 -2.600000
      vertex 4.125906 21.030901 -4.339900
      vertex 3.900000 21.500000 -2.600000
    endloop
  endfacet
  facet normal 0.900969 -0.433883 0.000000
    outer loop
      vertex 3.900000 21.500000 -2.600000
      vertex 3.900000 21.500000 -4.339900
      vertex 4.125906 21.969099 -4.339900
    endloop
  endfacet
  facet normal 0.900969 -0.433883 0.000000
    outer loop
      vertex 4.125906 21.969099 -2.600000
      vertex 3.900000 21.500000 -2.600000
      vertex 4.125906 21.969099 -4.339900
    endloop
  endfacet
  facet normal 0.342021 -0.939692 0.000000
    outer loop
      vertex 4.975000 20.520074 -4.339900
      vertex 4.975000 20.520074 -2.600000
      vertex 4.691013 20.416711 -2.600000
    endloop
  endfacet
  facet normal 0.342021 -0.939692 0.000000
    outer loop
      vertex 4.691013 20.416711 -4.339900
      vertex 4.975000 20.520074 -4.339900
      vertex 4.691013 20.416711 -2.600000
    endloop
  endfacet
  facet normal 0.342021 0.939692 -0.000000
    outer loop
      vertex 4.975000 2.479926 -1.400000
      vertex 4.975000 2.479926 -4.339900
      vertex 4.691013 2.583289 -1.400000
    endloop
  endfacet
  facet normal 0.342021 0.939692 -0.000000
    outer loop
      vertex 4.691013 2.583289 -1.400000
      vertex 4.975000 2.479926 -4.339900
      vertex 4.691013 2.583289 -4.339900
    endloop
  endfacet
  facet normal 0.000000 1.000000 0.000000
    outer loop
      vertex 4.691013 2.583289 -1.400000
      vertex 4.691013 2.583289 -4.339900
      vertex 4.308987 2.583289 -1.400000
    endloop
  endfacet
  facet normal 0.000000 1.000000 -0.000000
    outer loop
      vertex 4.308987 2.583289 -1.400000
      vertex 4.691013 2.583289 -4.339900
      vertex 4.308987 2.583289 -4.339900
    endloop
  endfacet
  facet normal -0.342021 0.939692 0.000000
    outer loop
      vertex 4.308987 2.583289 -1.400000
      vertex 4.308987 2.583289 -4.339900
      vertex 3.950000 2.452628 -1.400000
    endloop
  endfacet
  facet normal -0.342021 0.939692 0.000000
    outer loop
      vertex 3.950000 2.452628 -1.400000
      vertex 4.308987 2.583289 -4.339900
      vertex 3.950000 2.452628 -4.339900
    endloop
  endfacet
  facet normal -0.642788 0.766044 0.000000
    outer loop
      vertex 3.950000 2.452628 -1.400000
      vertex 3.950000 2.452628 -4.339900
      vertex 3.657351 2.207066 -1.400000
    endloop
  endfacet
  facet normal -0.642788 0.766044 -0.000000
    outer loop
      vertex 3.657351 2.207066 -1.400000
      vertex 3.950000 2.452628 -4.339900
      vertex 3.657351 2.207066 -4.339900
    endloop
  endfacet
  facet normal -0.866025 0.500000 -0.000000
    outer loop
      vertex 3.657351 2.207066 -1.400000
      vertex 3.657351 2.207066 -4.339900
      vertex 3.466338 1.876222 -1.400000
    endloop
  endfacet
  facet normal -0.866025 0.500000 -0.000000
    outer loop
      vertex 3.466338 1.876222 -1.400000
      vertex 3.657351 2.207066 -4.339900
      vertex 3.466338 1.876222 -4.339900
    endloop
  endfacet
  facet normal -0.984808 0.173648 -0.000000
    outer loop
      vertex 3.466338 1.876222 -1.400000
      vertex 3.466338 1.876222 -4.339900
      vertex 3.400000 1.500000 -1.400000
    endloop
  endfacet
  facet normal -0.984808 0.173648 -0.000000
    outer loop
      vertex 3.400000 1.500000 -1.400000
      vertex 3.466338 1.876222 -4.339900
      vertex 3.400000 1.500000 -4.339900
    endloop
  endfacet
  facet normal -0.984808 -0.173648 -0.000000
    outer loop
      vertex 3.466338 1.123778 -1.400000
      vertex 3.400000 1.500000 -1.400000
      vertex 3.466338 1.123778 -4.339900
    endloop
  endfacet
  facet normal -0.984808 -0.173648 -0.000000
    outer loop
      vertex 3.466338 1.123778 -4.339900
      vertex 3.400000 1.500000 -1.400000
      vertex 3.400000 1.500000 -4.339900
    endloop
  endfacet
  facet normal -0.866025 -0.500000 -0.000000
    outer loop
      vertex 3.537801 1.000000 -1.400000
      vertex 3.466338 1.123778 -1.400000
      vertex 3.537801 1.000000 -4.339900
    endloop
  endfacet
  facet normal -0.866025 -0.500000 -0.000000
    outer loop
      vertex 3.537801 1.000000 -4.339900
      vertex 3.466338 1.123778 -1.400000
      vertex 3.466338 1.123778 -4.339900
    endloop
  endfacet
  facet normal 0.866025 -0.500000 0.000000
    outer loop
      vertex -3.466338 1.123778 -4.339900
      vertex -3.466338 1.123778 -1.400000
      vertex -3.537801 1.000000 -1.400000
    endloop
  endfacet
  facet normal 0.866025 -0.500000 0.000000
    outer loop
      vertex -3.537801 1.000000 -4.339900
      vertex -3.466338 1.123778 -4.339900
      vertex -3.537801 1.000000 -1.400000
    endloop
  endfacet
  facet normal 0.984808 -0.173648 0.000000
    outer loop
      vertex -3.400000 1.500000 -4.339900
      vertex -3.400000 1.500000 -1.400000
      vertex -3.466338 1.123778 -1.400000
    endloop
  endfacet
  facet normal 0.984808 -0.173648 0.000000
    outer loop
      vertex -3.466338 1.123778 -4.339900
      vertex -3.400000 1.500000 -4.339900
      vertex -3.466338 1.123778 -1.400000
    endloop
  endfacet
  facet normal 0.984808 0.173648 0.000000
    outer loop
      vertex -3.466338 1.876222 -1.400000
      vertex -3.400000 1.500000 -1.400000
      vertex -3.400000 1.500000 -4.339900
    endloop
  endfacet
  facet normal 0.984808 0.173648 0.000000
    outer loop
      vertex -3.466338 1.876222 -4.339900
      vertex -3.466338 1.876222 -1.400000
      vertex -3.400000 1.500000 -4.339900
    endloop
  endfacet
  facet normal 0.866025 0.500000 0.000000
    outer loop
      vertex -3.657351 2.207066 -1.400000
      vertex -3.466338 1.876222 -1.400000
      vertex -3.466338 1.876222 -4.339900
    endloop
  endfacet
  facet normal 0.866025 0.500000 0.000000
    outer loop
      vertex -3.657351 2.207066 -4.339900
      vertex -3.657351 2.207066 -1.400000
      vertex -3.466338 1.876222 -4.339900
    endloop
  endfacet
  facet normal 0.642788 0.766044 0.000000
    outer loop
      vertex -3.657351 2.207066 -1.400000
      vertex -3.657351 2.207066 -4.339900
      vertex -3.950000 2.452628 -1.400000
    endloop
  endfacet
  facet normal 0.642788 0.766044 0.000000
    outer loop
      vertex -3.950000 2.452628 -1.400000
      vertex -3.657351 2.207066 -4.339900
      vertex -3.950000 2.452628 -4.339900
    endloop
  endfacet
  facet normal 0.342021 0.939692 0.000000
    outer loop
      vertex -3.950000 2.452628 -1.400000
      vertex -3.950000 2.452628 -4.339900
      vertex -4.308987 2.583289 -1.400000
    endloop
  endfacet
  facet normal 0.342021 0.939692 -0.000000
    outer loop
      vertex -4.308987 2.583289 -1.400000
      vertex -3.950000 2.452628 -4.339900
      vertex -4.308987 2.583289 -4.339900
    endloop
  endfacet
  facet normal 0.000000 1.000000 0.000000
    outer loop
      vertex -4.308987 2.583289 -1.400000
      vertex -4.308987 2.583289 -4.339900
      vertex -4.691013 2.583289 -1.400000
    endloop
  endfacet
  facet normal 0.000000 1.000000 -0.000000
    outer loop
      vertex -4.691013 2.583289 -1.400000
      vertex -4.308987 2.583289 -4.339900
      vertex -4.691013 2.583289 -4.339900
    endloop
  endfacet
  facet normal -0.342021 0.939692 0.000000
    outer loop
      vertex -4.691013 2.583289 -1.400000
      vertex -4.691013 2.583289 -4.339900
      vertex -4.975000 2.479926 -1.400000
    endloop
  endfacet
  facet normal -0.342021 0.939692 0.000000
    outer loop
      vertex -4.975000 2.479926 -1.400000
      vertex -4.691013 2.583289 -4.339900
      vertex -4.975000 2.479926 -4.339900
    endloop
  endfacet
  facet normal -0.342021 -0.939692 -0.000000
    outer loop
      vertex -4.691013 20.416711 -4.339900
      vertex -4.691013 20.416711 -2.600000
      vertex -4.975000 20.520074 -2.600000
    endloop
  endfacet
  facet normal -0.342021 -0.939692 -0.000000
    outer loop
      vertex -4.975000 20.520074 -4.339900
      vertex -4.691013 20.416711 -4.339900
      vertex -4.975000 20.520074 -2.600000
    endloop
  endfacet
  facet normal 0.000000 -1.000000 0.000000
    outer loop
      vertex -4.308987 20.416711 -4.339900
      vertex -4.308987 20.416711 -2.600000
      vertex -4.691013 20.416711 -2.600000
    endloop
  endfacet
  facet normal -0.000000 -1.000000 -0.000000
    outer loop
      vertex -4.691013 20.416711 -4.339900
      vertex -4.308987 20.416711 -4.339900
      vertex -4.691013 20.416711 -2.600000
    endloop
  endfacet
  facet normal 0.342021 -0.939692 0.000000
    outer loop
      vertex -3.950000 20.547372 -4.339900
      vertex -3.950000 20.547372 -2.600000
      vertex -4.308987 20.416711 -2.600000
    endloop
  endfacet
  facet normal 0.342021 -0.939692 0.000000
    outer loop
      vertex -4.308987 20.416711 -4.339900
      vertex -3.950000 20.547372 -4.339900
      vertex -4.308987 20.416711 -2.600000
    endloop
  endfacet
  facet normal 0.642788 -0.766044 0.000000
    outer loop
      vertex -3.657351 20.792934 -4.339900
      vertex -3.657351 20.792934 -2.600000
      vertex -3.950000 20.547372 -2.600000
    endloop
  endfacet
  facet normal 0.642788 -0.766044 0.000000
    outer loop
      vertex -3.950000 20.547372 -4.339900
      vertex -3.657351 20.792934 -4.339900
      vertex -3.950000 20.547372 -2.600000
    endloop
  endfacet
  facet normal 0.866025 -0.500000 0.000000
    outer loop
      vertex -3.466338 21.123778 -4.339900
      vertex -3.466338 21.123778 -2.600000
      vertex -3.657351 20.792934 -2.600000
    endloop
  endfacet
  facet normal 0.866025 -0.500000 0.000000
    outer loop
      vertex -3.657351 20.792934 -4.339900
      vertex -3.466338 21.123778 -4.339900
      vertex -3.657351 20.792934 -2.600000
    endloop
  endfacet
  facet normal 0.984808 -0.173648 0.000000
    outer loop
      vertex -3.400000 21.500000 -4.339900
      vertex -3.400000 21.500000 -2.600000
      vertex -3.466338 21.123778 -2.600000
    endloop
  endfacet
  facet normal 0.984808 -0.173648 0.000000
    outer loop
      vertex -3.466338 21.123778 -4.339900
      vertex -3.400000 21.500000 -4.339900
      vertex -3.466338 21.123778 -2.600000
    endloop
  endfacet
  facet normal 0.984808 0.173648 0.000000
    outer loop
      vertex -3.466338 21.876222 -2.600000
      vertex -3.400000 21.500000 -2.600000
      vertex -3.400000 21.500000 -4.339900
    endloop
  endfacet
  facet normal 0.984808 0.173648 0.000000
    outer loop
      vertex -3.466338 21.876222 -4.339900
      vertex -3.466338 21.876222 -2.600000
      vertex -3.400000 21.500000 -4.339900
    endloop
  endfacet
  facet normal 0.866025 0.500000 0.000000
    outer loop
      vertex -3.537801 22.000000 -2.600000
      vertex -3.466338 21.876222 -2.600000
      vertex -3.466338 21.876222 -4.339900
    endloop
  endfacet
  facet normal 0.866025 0.500000 0.000000
    outer loop
      vertex -3.537801 22.000000 -4.339900
      vertex -3.537801 22.000000 -2.600000
      vertex -3.466338 21.876222 -4.339900
    endloop
  endfacet
  facet normal -0.866025 0.500000 0.000000
    outer loop
      vertex 3.537801 22.000000 -2.600000
      vertex 3.537801 22.000000 -4.339900
      vertex 3.466338 21.876222 -2.600000
    endloop
  endfacet
  facet normal -0.866025 0.500000 0.000000
    outer loop
      vertex 3.466338 21.876222 -2.600000
      vertex 3.537801 22.000000 -4.339900
      vertex 3.466338 21.876222 -4.339900
    endloop
  endfacet
  facet normal -0.984808 0.173648 0.000000
    outer loop
      vertex 3.466338 21.876222 -2.600000
      vertex 3.466338 21.876222 -4.339900
      vertex 3.400000 21.500000 -2.600000
    endloop
  endfacet
  facet normal -0.984808 0.173648 0.000000
    outer loop
      vertex 3.400000 21.500000 -2.600000
      vertex 3.466338 21.876222 -4.339900
      vertex 3.400000 21.500000 -4.339900
    endloop
  endfacet
  facet normal -0.984808 -0.173648 0.000000
    outer loop
      vertex 3.466338 21.123778 -2.600000
      vertex 3.400000 21.500000 -2.600000
      vertex 3.466338 21.123778 -4.339900
    endloop
  endfacet
  facet normal -0.984808 -0.173648 0.000000
    outer loop
      vertex 3.466338 21.123778 -4.339900
      vertex 3.400000 21.500000 -2.600000
      vertex 3.400000 21.500000 -4.339900
    endloop
  endfacet
  facet normal -0.866025 -0.500000 0.000000
    outer loop
      vertex 3.657351 20.792934 -2.600000
      vertex 3.466338 21.123778 -2.600000
      vertex 3.657351 20.792934 -4.339900
    endloop
  endfacet
  facet normal -0.866025 -0.500000 0.000000
    outer loop
      vertex 3.657351 20.792934 -4.339900
      vertex 3.466338 21.123778 -2.600000
      vertex 3.466338 21.123778 -4.339900
    endloop
  endfacet
  facet normal -0.642788 -0.766044 -0.000000
    outer loop
      vertex 3.950000 20.547372 -4.339900
      vertex 3.950000 20.547372 -2.600000
      vertex 3.657351 20.792934 -2.600000
    endloop
  endfacet
  facet normal -0.642788 -0.766044 -0.000000
    outer loop
      vertex 3.657351 20.792934 -4.339900
      vertex 3.950000 20.547372 -4.339900
      vertex 3.657351 20.792934 -2.600000
    endloop
  endfacet
  facet normal -0.342021 -0.939692 -0.000000
    outer loop
      vertex 4.308987 20.416711 -4.339900
      vertex 4.308987 20.416711 -2.600000
      vertex 3.950000 20.547372 -2.600000
    endloop
  endfacet
  facet normal -0.342021 -0.939692 -0.000000
    outer loop
      vertex 3.950000 20.547372 -4.339900
      vertex 4.308987 20.416711 -4.339900
      vertex 3.950000 20.547372 -2.600000
    endloop
  endfacet
  facet normal 0.000000 -1.000000 0.000000
    outer loop
      vertex 4.691013 20.416711 -4.339900
      vertex 4.691013 20.416711 -2.600000
      vertex 4.308987 20.416711 -2.600000
    endloop
  endfacet
  facet normal -0.000000 -1.000000 -0.000000
    outer loop
      vertex 4.308987 20.416711 -4.339900
      vertex 4.691013 20.416711 -4.339900
      vertex 4.308987 20.416711 -2.600000
    endloop
  endfacet
  facet normal -1.000000 0.000000 -0.000000
    outer loop
      vertex -3.959419 1.760330 -4.339900
      vertex -3.959419 1.239670 -4.339900
      vertex -3.959419 1.760330 -1.400000
    endloop
  endfacet
  facet normal -1.000000 0.000000 -0.000000
    outer loop
      vertex -3.959419 1.760330 -1.400000
      vertex -3.959419 1.239670 -4.339900
      vertex -3.959419 1.239670 -1.400000
    endloop
  endfacet
  facet normal -0.623491 -0.781830 0.000000
    outer loop
      vertex -4.366487 2.084957 -1.400000
      vertex -4.366487 2.084957 -4.339900
      vertex -3.959419 1.760330 -4.339900
    endloop
  endfacet
  facet normal -0.623491 -0.781830 -0.000000
    outer loop
      vertex -3.959419 1.760330 -1.400000
      vertex -4.366487 2.084957 -1.400000
      vertex -3.959419 1.760330 -4.339900
    endloop
  endfacet
  facet normal 0.222521 -0.974928 0.000000
    outer loop
      vertex -4.874094 1.969099 -1.400000
      vertex -4.874094 1.969099 -4.339900
      vertex -4.366487 2.084957 -4.339900
    endloop
  endfacet
  facet normal 0.222521 -0.974928 0.000000
    outer loop
      vertex -4.366487 2.084957 -1.400000
      vertex -4.874094 1.969099 -1.400000
      vertex -4.366487 2.084957 -4.339900
    endloop
  endfacet
  facet normal -1.000000 0.000000 -0.000000
    outer loop
      vertex -3.959419 21.760330 -4.339900
      vertex -3.959419 21.239670 -4.339900
      vertex -3.959419 21.760330 -2.600000
    endloop
  endfacet
  facet normal -1.000000 0.000000 -0.000000
    outer loop
      vertex -3.959419 21.760330 -2.600000
      vertex -3.959419 21.239670 -4.339900
      vertex -3.959419 21.239670 -2.600000
    endloop
  endfacet
  facet normal -0.623491 0.781830 0.000000
    outer loop
      vertex -4.366487 20.915043 -4.339900
      vertex -4.366487 20.915043 -2.600000
      vertex -3.959419 21.239670 -4.339900
    endloop
  endfacet
  facet normal -0.623491 0.781830 -0.000000
    outer loop
      vertex -3.959419 21.239670 -4.339900
      vertex -4.366487 20.915043 -2.600000
      vertex -3.959419 21.239670 -2.600000
    endloop
  endfacet
  facet normal 0.222521 0.974928 0.000000
    outer loop
      vertex -4.874094 21.030901 -4.339900
      vertex -4.874094 21.030901 -2.600000
      vertex -4.366487 20.915043 -4.339900
    endloop
  endfacet
  facet normal 0.222521 0.974928 0.000000
    outer loop
      vertex -4.366487 20.915043 -4.339900
      vertex -4.874094 21.030901 -2.600000
      vertex -4.366487 20.915043 -2.600000
    endloop
  endfacet
  facet normal 0.000000 0.000000 1.000000
    outer loop
      vertex 4.633513 2.084957 -1.400000
      vertex 4.975000 1.812629 -1.400000
      vertex 4.975000 2.479926 -1.400000
    endloop
  endfacet
  facet normal 0.000000 0.000000 1.000000
    outer loop
      vertex 4.308987 2.583289 -1.400000
      vertex 4.633513 2.084957 -1.400000
      vertex 4.691013 2.583289 -1.400000
    endloop
  endfacet
  facet normal 0.000000 -0.000000 1.000000
    outer loop
      vertex 4.691013 2.583289 -1.400000
      vertex 4.633513 2.084957 -1.400000
      vertex 4.975000 2.479926 -1.400000
    endloop
  endfacet
  facet normal 0.000000 0.000000 1.000000
    outer loop
      vertex 3.950000 2.452628 -1.400000
      vertex 4.633513 2.084957 -1.400000
      vertex 4.308987 2.583289 -1.400000
    endloop
  endfacet
  facet normal -0.000000 -0.000000 1.000000
    outer loop
      vertex 4.125906 1.030901 -1.400000
      vertex 3.466338 1.123778 -1.400000
      vertex 3.537801 1.000000 -1.400000
    endloop
  endfacet
  facet normal -0.000000 -0.000000 1.000000
    outer loop
      vertex 4.125906 1.030901 -1.400000
      vertex 3.900000 1.500000 -1.400000
      vertex 3.466338 1.123778 -1.400000
    endloop
  endfacet
  facet normal -0.000000 0.000000 1.000000
    outer loop
      vertex 3.900000 1.500000 -1.400000
      vertex 3.466338 1.876222 -1.400000
      vertex 3.400000 1.500000 -1.400000
    endloop
  endfacet
  facet normal -0.000000 0.000000 1.000000
    outer loop
      vertex 3.900000 1.500000 -1.400000
      vertex 4.125906 1.969099 -1.400000
      vertex 3.466338 1.876222 -1.400000
    endloop
  endfacet
  facet normal -0.000000 -0.000000 1.000000
    outer loop
      vertex 4.261292 1.000000 -1.400000
      vertex 4.125906 1.030901 -1.400000
      vertex 3.537801 1.000000 -1.400000
    endloop
  endfacet
  facet normal -0.000000 -0.000000 1.000000
    outer loop
      vertex 3.466338 1.123778 -1.400000
      vertex 3.900000 1.500000 -1.400000
      vertex 3.400000 1.500000 -1.400000
    endloop
  endfacet
  facet normal -0.000000 -0.000000 1.000000
    outer loop
      vertex 3.466338 1.876222 -1.400000
      vertex 4.125906 1.969099 -1.400000
      vertex 3.657351 2.207066 -1.400000
    endloop
  endfacet
  facet normal 0.000000 0.000000 1.000000
    outer loop
      vertex 4.125906 1.969099 -1.400000
      vertex 3.950000 2.452628 -1.400000
      vertex 3.657351 2.207066 -1.400000
    endloop
  endfacet
  facet normal 0.000000 0.000000 1.000000
    outer loop
      vertex 4.125906 1.969099 -1.400000
      vertex 4.633513 2.084957 -1.400000
      vertex 3.950000 2.452628 -1.400000
    endloop
  endfacet
  facet normal 0.000000 0.000000 1.000000
    outer loop
      vertex -3.466338 1.123778 -1.400000
      vertex -3.400000 1.500000 -1.400000
      vertex -3.466338 1.876222 -1.400000
    endloop
  endfacet
  facet normal 0.000000 0.000000 1.000000
    outer loop
      vertex -3.950000 2.452628 -1.400000
      vertex -3.466338 1.123778 -1.400000
      vertex -3.657351 2.207066 -1.400000
    endloop
  endfacet
  facet normal -0.000000 0.000000 1.000000
    outer loop
      vertex -3.657351 2.207066 -1.400000
      vertex -3.466338 1.123778 -1.400000
      vertex -3.466338 1.876222 -1.400000
    endloop
  endfacet
  facet normal 0.000000 0.000000 1.000000
    outer loop
      vertex -4.308987 2.583289 -1.400000
      vertex -3.466338 1.123778 -1.400000
      vertex -3.950000 2.452628 -1.400000
    endloop
  endfacet
  facet normal -0.000000 -0.000000 1.000000
    outer loop
      vertex -3.959419 1.760330 -1.400000
      vertex -3.466338 1.123778 -1.400000
      vertex -4.308987 2.583289 -1.400000
    endloop
  endfacet
  facet normal 0.000000 0.000000 1.000000
    outer loop
      vertex -4.366487 2.084957 -1.400000
      vertex -3.959419 1.760330 -1.400000
      vertex -4.691013 2.583289 -1.400000
    endloop
  endfacet
  facet normal 0.000000 0.000000 1.000000
    outer loop
      vertex -4.975000 1.759565 -1.400000
      vertex -4.874094 1.969099 -1.400000
      vertex -4.975000 2.479926 -1.400000
    endloop
  endfacet
  facet normal 0.000000 0.000000 1.000000
    outer loop
      vertex -4.975000 2.479926 -1.400000
      vertex -4.366487 2.084957 -1.400000
      vertex -4.691013 2.583289 -1.400000
    endloop
  endfacet
  facet normal 0.000000 0.000000 1.000000
    outer loop
      vertex -4.691013 2.583289 -1.400000
      vertex -3.959419 1.760330 -1.400000
      vertex -4.308987 2.583289 -1.400000
    endloop
  endfacet
  facet normal -0.000000 0.000000 1.000000
    outer loop
      vertex -4.259955 1.000000 -1.400000
      vertex -3.466338 1.123778 -1.400000
      vertex -3.959419 1.239670 -1.400000
    endloop
  endfacet
  facet normal -0.000000 0.000000 1.000000
    outer loop
      vertex -3.537801 1.000000 -1.400000
      vertex -3.466338 1.123778 -1.400000
      vertex -4.259955 1.000000 -1.400000
    endloop
  endfacet
  facet normal 0.000000 0.000000 1.000000
    outer loop
      vertex -4.874094 1.969099 -1.400000
      vertex -4.366487 2.084957 -1.400000
      vertex -4.975000 2.479926 -1.400000
    endloop
  endfacet
  facet normal -0.000000 0.000000 1.000000
    outer loop
      vertex -3.959419 1.760330 -1.400000
      vertex -3.959419 1.239670 -1.400000
      vertex -3.466338 1.123778 -1.400000
    endloop
  endfacet
  facet normal 0.000000 0.000000 1.000000
    outer loop
      vertex 4.740045 1.000000 -1.400000
      vertex 4.975000 1.000000 -1.400000
      vertex 4.975000 1.187371 -1.400000
    endloop
  endfacet
  facet normal 0.000000 0.000000 1.000000
    outer loop
      vertex 4.691013 20.416711 -2.600000
      vertex 4.975000 20.520074 -2.600000
      vertex 4.975000 21.187371 -2.600000
    endloop
  endfacet
  facet normal 0.000000 0.000000 1.000000
    outer loop
      vertex 4.125906 21.030901 -2.600000
      vertex 4.691013 20.416711 -2.600000
      vertex 4.633513 20.915043 -2.600000
    endloop
  endfacet
  facet normal 0.000000 0.000000 1.000000
    outer loop
      vertex 4.633513 20.915043 -2.600000
      vertex 4.691013 20.416711 -2.600000
      vertex 4.975000 21.187371 -2.600000
    endloop
  endfacet
  facet normal -0.000000 -0.000000 1.000000
    outer loop
      vertex 3.400000 21.500000 -2.600000
      vertex 4.691013 20.416711 -2.600000
      vertex 4.125906 21.030901 -2.600000
    endloop
  endfacet
  facet normal -0.000000 -0.000000 1.000000
    outer loop
      vertex 3.537801 22.000000 -2.600000
      vertex 4.125906 21.030901 -2.600000
      vertex 3.900000 21.500000 -2.600000
    endloop
  endfacet
  facet normal -0.000000 0.000000 1.000000
    outer loop
      vertex 3.537801 22.000000 -2.600000
      vertex 3.900000 21.500000 -2.600000
      vertex 4.125906 21.969099 -2.600000
    endloop
  endfacet
  facet normal -0.000000 0.000000 1.000000
    outer loop
      vertex 3.537801 22.000000 -2.600000
      vertex 4.125906 21.969099 -2.600000
      vertex 4.261292 22.000000 -2.600000
    endloop
  endfacet
  facet normal -0.000000 0.000000 1.000000
    outer loop
      vertex 3.466338 21.876222 -2.600000
      vertex 4.125906 21.030901 -2.600000
      vertex 3.537801 22.000000 -2.600000
    endloop
  endfacet
  facet normal -0.000000 0.000000 1.000000
    outer loop
      vertex 3.400000 21.500000 -2.600000
      vertex 4.125906 21.030901 -2.600000
      vertex 3.466338 21.876222 -2.600000
    endloop
  endfacet
  facet normal -0.000000 -0.000000 1.000000
    outer loop
      vertex 3.466338 21.123778 -2.600000
      vertex 4.691013 20.416711 -2.600000
      vertex 3.400000 21.500000 -2.600000
    endloop
  endfacet
  facet normal 0.000000 0.000000 1.000000
    outer loop
      vertex 3.657351 20.792934 -2.600000
      vertex 4.691013 20.416711 -2.600000
      vertex 3.466338 21.123778 -2.600000
    endloop
  endfacet
  facet normal 0.000000 0.000000 1.000000
    outer loop
      vertex 3.950000 20.547372 -2.600000
      vertex 4.691013 20.416711 -2.600000
      vertex 3.657351 20.792934 -2.600000
    endloop
  endfacet
  facet normal 0.000000 0.000000 1.000000
    outer loop
      vertex 4.308987 20.416711 -2.600000
      vertex 4.691013 20.416711 -2.600000
      vertex 3.950000 20.547372 -2.600000
    endloop
  endfacet
  facet normal 0.000000 0.000000 1.000000
    outer loop
      vertex 4.740045 22.000000 -2.600000
      vertex 4.975000 21.812629 -2.600000
      vertex 4.975000 22.000000 -2.600000
    endloop
  endfacet
  facet normal 0.000000 0.000000 1.000000
    outer loop
      vertex -3.466338 21.123778 -2.600000
      vertex -3.400000 21.500000 -2.600000
      vertex -3.466338 21.876222 -2.600000
    endloop
  endfacet
  facet normal -0.000000 -0.000000 1.000000
    outer loop
      vertex -3.959419 21.760330 -2.600000
      vertex -3.466338 21.123778 -2.600000
      vertex -3.537801 22.000000 -2.600000
    endloop
  endfacet
  facet normal 0.000000 0.000000 1.000000
    outer loop
      vertex -3.537801 22.000000 -2.600000
      vertex -3.466338 21.123778 -2.600000
      vertex -3.466338 21.876222 -2.600000
    endloop
  endfacet
  facet normal -0.000000 -0.000000 1.000000
    outer loop
      vertex -4.259955 22.000000 -2.600000
      vertex -3.959419 21.760330 -2.600000
      vertex -3.537801 22.000000 -2.600000
    endloop
  endfacet
  facet normal -0.000000 0.000000 1.000000
    outer loop
      vertex -4.366487 20.915043 -2.600000
      vertex -3.466338 21.123778 -2.600000
      vertex -3.959419 21.239670 -2.600000
    endloop
  endfacet
  facet normal -0.000000 0.000000 1.000000
    outer loop
      vertex -4.975000 20.520074 -2.600000
      vertex -3.466338 21.123778 -2.600000
      vertex -4.366487 20.915043 -2.600000
    endloop
  endfacet
  facet normal 0.000000 0.000000 1.000000
    outer loop
      vertex -4.975000 20.520074 -2.600000
      vertex -4.366487 20.915043 -2.600000
      vertex -4.874094 21.030901 -2.600000
    endloop
  endfacet
  facet normal 0.000000 0.000000 1.000000
    outer loop
      vertex -4.975000 20.520074 -2.600000
      vertex -4.874094 21.030901 -2.600000
      vertex -4.975000 21.240435 -2.600000
    endloop
  endfacet
  facet normal -0.000000 -0.000000 1.000000
    outer loop
      vertex -4.691013 20.416711 -2.600000
      vertex -3.466338 21.123778 -2.600000
      vertex -4.975000 20.520074 -2.600000
    endloop
  endfacet
  facet normal 0.000000 -0.000000 1.000000
    outer loop
      vertex -4.308987 20.416711 -2.600000
      vertex -3.466338 21.123778 -2.600000
      vertex -4.691013 20.416711 -2.600000
    endloop
  endfacet
  facet normal 0.000000 -0.000000 1.000000
    outer loop
      vertex -3.950000 20.547372 -2.600000
      vertex -3.466338 21.123778 -2.600000
      vertex -4.308987 20.416711 -2.600000
    endloop
  endfacet
  facet normal 0.000000 -0.000000 1.000000
    outer loop
      vertex -3.657351 20.792934 -2.600000
      vertex -3.466338 21.123778 -2.600000
      vertex -3.950000 20.547372 -2.600000
    endloop
  endfacet
  facet normal -0.000000 0.000000 1.000000
    outer loop
      vertex -3.959419 21.760330 -2.600000
      vertex -3.959419 21.239670 -2.600000
      vertex -3.466338 21.123778 -2.600000
    endloop
  endfacet
  facet normal 0.000000 0.000000 1.000000
    outer loop
      vertex -4.874094 21.969099 -2.600000
      vertex -4.738708 22.000000 -2.600000
      vertex -4.975000 22.000000 -2.600000
    endloop
  endfacet
  facet normal 0.000000 0.000000 1.000000
    outer loop
      vertex -4.975000 21.759565 -2.600000
      vertex -4.874094 21.969099 -2.600000
      vertex -4.975000 22.000000 -2.600000
    endloop
  endfacet
  facet normal 0.000000 0.000000 1.000000
    outer loop
      vertex -4.975000 1.000000 -1.400000
      vertex -4.738708 1.000000 -1.400000
      vertex -4.874094 1.030901 -1.400000
    endloop
  endfacet
  facet normal 0.000000 -0.000000 1.000000
    outer loop
      vertex -4.975000 1.240435 -1.400000
      vertex -4.975000 1.000000 -1.400000
      vertex -4.874094 1.030901 -1.400000
    endloop
  endfacet
endsolid OpenSCAD_Model
